<svg id="Layer_1" data-name="Layer 1" xmlns="http://www.w3.org/2000/svg" viewBox="0 0 370 214.38"><title>Cards_White</title><rect width="370" height="214.38" rx="20" fill="#fff"/><path d="M568.42,692.77,530.65,708l27.3,1.77,45.78,120,31.81-12.84,12.61,33,9-23.24-6.13-16L665.06,805l7.35-21.8L645.1,795.28,638,776.57l19.15-7.93c17.33-8,27.65-13.69,17.85-38.61,0,0-4.66-10.06-11.65-28.38s-22.47-21.28-39-14.59l-33.18,13.4,38.55,101-17.11,6.92ZM650.34,755l-17.69,7.71-21.11-55.32s12.94-4.66,18.44-6.88c6.3-2.54,14.87-3.6,19.08,4.76L661,735C664.52,745.13,665.29,749,650.34,755Z" transform="translate(-341.03 -660.46)" fill="#f2f2f2" fill-rule="evenodd"/></svg>