<svg id="Layer_1" data-name="Layer 1" xmlns="http://www.w3.org/2000/svg" viewBox="0 0 31.7 25.21"><title>Icon-Wallet</title><path d="M483.09,729.81l22.47-6.9a1.21,1.21,0,0,0,.89-1.46l-1.53-5.17-3.62,1.07c-.92.27-2.19.53-2.78-1.45s.65-2.55,1.52-2.81l3.62-1.07-1.4-4.75c-.23-.75-.92-.55-1.27-.44l-22.65,6.94-.08,0-.12,0c-.38.1-3.07.67-3.24.11l4.57,15.43C480,731.12,483.09,729.81,483.09,729.81Zm21.56-14.44.6-.17-.72-2.43-.6.17L500.31,714c-.95.28-.93.78-.69,1.56s.54,1.13,1.41.87Z" transform="translate(-474.79 -705.07)" fill="#959595" fill-rule="evenodd"/><path d="M498,705.43l-20.82,6.39h0c-1.72.54-2.73,1.15-2.28,2.11.17.56,2.86,0,3.24-.11-.17-.08,0-.19.15-.23l22.64-7-.16-.55C500.47,705.1,499.68,704.74,498,705.43Z" transform="translate(-474.79 -705.07)" fill="#959595"/><path d="M478.34,713.77,501,706.83l-.06-.18-22.64,7c-.12,0-.32.15-.15.23l.12,0Z" transform="translate(-474.79 -705.07)" fill="#959595"/></svg>