<svg id="Layer_1" data-name="Layer 1" xmlns="http://www.w3.org/2000/svg" viewBox="0 0 18.41 18.43"><title>Icon-Google</title><path d="M1,5.08a9.32,9.32,0,0,0,0,8.3l3.12-2.44a6.29,6.29,0,0,1,0-3.39Z" transform="translate(0.01 0)" fill="#ffbe00"/><path d="M12.69,13.92l3,2.34c2.68-2.64,2.93-6,2.59-8.71H9.47v3.6h5.08A4.26,4.26,0,0,1,12.69,13.92Z" transform="translate(0.01 0)" fill="#0086f8" fill-rule="evenodd"/><path d="M13,5.08l2.72-2.66A9.35,9.35,0,0,0,8.91,0,9.66,9.66,0,0,0,1,5.08L4.09,7.55A5.78,5.78,0,0,1,8.88,3.66,4.79,4.79,0,0,1,13,5.08Z" transform="translate(0.01 0)" fill="#ff4031"/><path d="M6.62,18.11c1.93.48,6.44.78,9.11-1.85l-3-2.34a6.19,6.19,0,0,1-3.55.95c-3.17-.48-4.54-2.2-5-3.93L1,13.38A9.27,9.27,0,0,0,6.62,18.11Z" transform="translate(0.01 0)" fill="#00aa4c"/></svg>