<svg id="Layer_1" data-name="Layer 1" xmlns="http://www.w3.org/2000/svg" viewBox="0 0 6.34 7.3"><title>Icon-MiniCalendar</title><path d="M6.44,4.7v.94" transform="translate(-4.45 -4.2)" fill="none" stroke="#8696bb" stroke-linecap="round" stroke-linejoin="round"/><path d="M8.81,4.7v.94" transform="translate(-4.45 -4.2)" fill="none" stroke="#8696bb" stroke-linecap="round" stroke-linejoin="round"/><path d="M5.1,6.93h5.05" transform="translate(-4.45 -4.2)" fill="none" stroke="#8696bb" stroke-linecap="round" stroke-linejoin="round"/><path d="M10.3,6.75V9.42A1.38,1.38,0,0,1,8.81,11H6.44A1.38,1.38,0,0,1,5,9.42V6.75A1.38,1.38,0,0,1,6.44,5.17H8.81A1.38,1.38,0,0,1,10.3,6.75Z" transform="translate(-4.45 -4.2)" fill="none" stroke="#8696bb" stroke-linecap="round" stroke-linejoin="round"/><path d="M7.62,8.38h0" transform="translate(-4.45 -4.2)" fill="none" stroke="#8696bb" stroke-linecap="round" stroke-linejoin="round"/><path d="M6.52,8.38h0" transform="translate(-4.45 -4.2)" fill="none" stroke="#8696bb" stroke-linecap="round" stroke-linejoin="round"/><path d="M6.52,9.33h0" transform="translate(-4.45 -4.2)" fill="none" stroke="#8696bb" stroke-linecap="round" stroke-linejoin="round"/></svg>