<svg width="40" height="41" viewBox="0 0 40 41" fill="none" xmlns="http://www.w3.org/2000/svg">
  <path fill-rule="evenodd" clip-rule="evenodd" d="M35 21L35 19.7158L21.7527 19.7158C21.1552 16.4631 18.3298 14 14.9346 14C11.1047 14 8 17.134 8 21C8 24.866 11.1047 28 14.9346 28C18.3795 28 21.2377 25.4643 21.7774 22.1411L24.4382 22.1411L25.6004 23.3142L27.2345 23.3142L28.564 22.1411L30.0695 22.1411L30.0695 24.7429L32.7285 24.7429L32.7285 22.1411L35 22.1411L35 21ZM14.9346 18.3458C13.4824 18.3458 12.3051 19.5341 12.3051 21C12.3051 22.4659 13.4824 23.6542 14.9346 23.6542C16.3867 23.6542 17.564 22.4659 17.564 21C17.564 19.5341 16.3867 18.3458 14.9346 18.3458Z" fill="#FF7373"/>
</svg>
