<svg width="40" height="41" viewBox="0 0 40 41" fill="none" xmlns="http://www.w3.org/2000/svg">
  <path d="M17.0054 17.0054C17.0054 18.9354 18.57 20.5 20.5 20.5C22.43 20.5 23.9946 18.9354 23.9946 17.0054C23.9946 15.0755 22.43 13.5109 20.5 13.5109C18.57 13.5109 17.0054 15.0755 17.0054 17.0054Z" fill="#4E4E4E"/>
  <path d="M19.1679 20.5C19.1679 20.5 14.0807 20.5 14.0807 23.8945L15.2994 28.4905C16.795 29.4658 18.5813 30.0327 20.5 30.0327C22.4187 30.0327 24.205 29.4658 25.7006 28.4905L26.9193 23.8945C26.9193 20.5 21.8321 20.5 21.8321 20.5H20.5H19.1679Z" fill="#4E4E4E"/>
  <path fill-rule="evenodd" clip-rule="evenodd" d="M20.5 9C14.1487 9 9 14.1487 9 20.5C9 26.8513 14.1487 32 20.5 32C26.8513 32 32 26.8513 32 20.5C32 14.1487 26.8513 9 20.5 9ZM10.9673 20.5C10.9673 15.2352 15.2352 10.9673 20.5 10.9673C25.7648 10.9673 30.0327 15.2352 30.0327 20.5C30.0327 23.8461 28.3087 26.7895 25.7006 28.4905C24.205 29.4658 22.4187 30.0327 20.5 30.0327C18.5813 30.0327 16.795 29.4658 15.2994 28.4905C12.6913 26.7895 10.9673 23.8461 10.9673 20.5Z" fill="#4E4E4E"/>
</svg>
