<svg id="Layer_1" data-name="Layer 1" xmlns="http://www.w3.org/2000/svg" viewBox="0 0 23.16 23.69"><title>Icon-Password</title><path d="M15.84,20H29.69M15.84,20V17.11a6.53,6.53,0,0,1,6.92-6.39,6.54,6.54,0,0,1,6.93,6.39V20M15.84,20c-1.53,0-4.16,0-4.16,2.77v5.12a5.54,5.54,0,0,0,5.54,5.54H28.3a5.54,5.54,0,0,0,5.54-5.54V22.75A2.71,2.71,0,0,0,31.07,20H29.69m-6.93,8.65v1.95m0-1.95a1.39,1.39,0,1,1,1.39-1.38A1.38,1.38,0,0,1,22.76,28.63Z" transform="translate(-11.18 -10.22)" fill="none" stroke="#515151" stroke-linecap="round"/></svg>