<svg width="18" height="18" viewBox="0 0 18 18" fill="none" xmlns="http://www.w3.org/2000/svg">
  <path fill-rule="evenodd" clip-rule="evenodd" d="M8.99969 2.35596C11.3975 2.35591 13.3414 4.29979 13.3414 6.69763C13.3414 9.09548 8.99969 15.6441 8.99969 15.6441C8.99969 15.6441 4.6582 9.09542 4.6582 6.69763C4.6582 4.29984 6.6019 2.35601 8.99969 2.35596ZM7.36575 6.69763C7.36575 5.79523 8.09729 5.06369 8.99969 5.06369C9.9021 5.06369 10.6336 5.79523 10.6336 6.69763C10.6336 7.60004 9.9021 8.33158 8.99969 8.33158C8.09729 8.33158 7.36575 7.60004 7.36575 6.69763Z" stroke="#4E4E4E"/>
  <path d="M8.99969 5.06369C8.09729 5.06369 7.36575 5.79523 7.36575 6.69763C7.36575 7.60004 8.09729 8.33158 8.99969 8.33158C9.9021 8.33158 10.6336 7.60004 10.6336 6.69763C10.6336 5.79523 9.9021 5.06369 8.99969 5.06369Z" stroke="#4E4E4E"/>
</svg>
