<svg id="Layer_1" data-name="Layer 1" xmlns="http://www.w3.org/2000/svg" viewBox="0 0 29.39 29.39"><title>Icon-Discover</title><path d="M490.54,705.72a12.14,12.14,0,1,0,12.17,12.21A12.11,12.11,0,0,0,490.54,705.72Zm-6.71,18.92.87-2.09a21.32,21.32,0,0,1,4.47-6,19.91,19.91,0,0,1,6-4.3l2-.94s-.5,1.26-.83,2.07a23.35,23.35,0,0,1-4.22,6.1,30.55,30.55,0,0,1-6.17,4.29Z" transform="translate(-475.84 -703.23)" fill="#959595" fill-rule="evenodd"/><path d="M490.54,703.23a14.7,14.7,0,1,0,14.69,14.7A14.7,14.7,0,0,0,490.54,703.23Zm-13.05,14.7A13,13,0,1,1,490.54,731,13,13,0,0,1,477.49,717.93Z" transform="translate(-475.84 -703.23)" fill="#959595" fill-rule="evenodd"/><path d="M490,717.34l-4.64,5.82,5.8-4.66,4.59-5.73Z" transform="translate(-475.84 -703.23)" fill="#959595"/></svg>