<svg width="40" height="41" viewBox="0 0 40 41" fill="none" xmlns="http://www.w3.org/2000/svg">
  <path fill-rule="evenodd" clip-rule="evenodd" d="M11 30.6391L11 20.3481C11 18.9872 12.1887 18.9872 12.1887 18.9872H12.5833H15.2521H15.9559H20H24.061H24.7546H27.4167H27.8113C27.8113 18.9872 29 18.9872 29 20.3481L29 30.6391C29 31.3907 28.4678 32 27.8113 32H26.1557H20H13.8443H12.1887C11.5322 32 11 31.3907 11 30.6391ZM27.4167 16.7174V14.1702C27.4167 10.4436 24.7546 9.00001 21.2774 9L18.7226 9C15.2521 9 12.5833 10.4436 12.5833 14.1702L12.5833 16.7174H15.9559V14.7474C15.9559 13.099 17.3176 12.7672 19.0766 12.7672H20.8818C22.7411 12.7672 24.061 13.2089 24.061 14.7474V16.7174H27.4167ZM20.8179 27.6658C20.8179 28.183 20.4517 28.6022 20 28.6022C19.5483 28.6022 19.1821 28.183 19.1821 27.6658V25.0745C19.1821 25.0745 18.1991 24.8127 18.1991 23.2176C18.1991 22.3812 18.7412 21.3552 20 21.3552C21.351 21.3552 21.8009 22.5212 21.8009 23.2176C21.8009 24.8127 20.8179 25.0745 20.8179 25.0745V27.6658Z" fill="#4E4E4E"/>
</svg>
