<svg id="Layer_1" data-name="Layer 1" xmlns="http://www.w3.org/2000/svg" viewBox="0 0 29.53 33.12"><title>Icon-Loyalty -App-TopBar</title><path d="M532.52,661l-7.53,3,5.44.35,9.13,23.92,6.34-2.56,2.52,6.58,1.78-4.63L549,684.52l2.81-1.14,1.46-4.34-5.44,2.41-1.43-3.74,3.82-1.58c3.46-1.59,5.51-2.72,3.56-7.69,0,0-.93-2-2.32-5.66s-4.48-4.24-7.78-2.91L537,662.54l7.69,20.15-3.41,1.38Zm16.33,12.4-3.52,1.53-4.21-11s2.58-.92,3.67-1.37c1.26-.5,3-.72,3.81,1l2.39,5.94C551.68,671.45,551.83,672.21,548.85,673.41Z" transform="translate(-524.99 -659.22)" fill="#6590ff" fill-rule="evenodd"/></svg>