<svg width="40" height="41" viewBox="0 0 40 41" fill="none" xmlns="http://www.w3.org/2000/svg">
  <path d="M22.8458 15.9187C22.1784 16.5861 21.2347 16.7246 20.7797 16.2696L19.7867 15.2765C18.1558 13.6457 16.9813 13.4909 14.7362 15.736C12.491 17.9812 12.6458 19.1557 14.2767 20.7865L15.2697 21.7796C15.7508 22.2606 15.5863 23.1783 14.9189 23.8457C14.2515 24.5131 13.3338 24.6775 12.8528 24.1965L11.6703 23.0141C9.25767 20.6014 9.58521 17.6047 13.095 14.0949C16.6049 10.5851 19.6276 10.2835 22.0142 12.6702L23.1967 13.8526C23.6517 14.3076 23.5132 15.2513 22.8458 15.9187Z" fill="#4E4E4E"/>
  <path d="M23.9332 24.9331C24.5198 24.3466 24.741 23.6169 24.2416 23.1174L18.8824 17.7583C18.4129 17.2888 17.6533 17.4801 17.0668 18.0666C16.4802 18.6531 16.259 19.3828 16.7584 19.8823L22.1176 25.2414C22.5871 25.7109 23.3467 25.5196 23.9332 24.9331Z" fill="#4E4E4E"/>
  <path d="M18.1542 27.081C18.8216 26.4136 19.7653 26.2751 20.2203 26.7301L21.2133 27.7232C22.8442 29.354 24.0187 29.5088 26.2638 27.2637C28.509 25.0185 28.3542 23.844 26.7233 22.2132L25.7303 21.2201C25.2493 20.7391 25.4137 19.8214 26.0811 19.154C26.7485 18.4866 27.6662 18.3221 28.1472 18.8032L29.3297 19.9856C31.7423 22.3983 31.4148 25.395 27.905 28.9048C24.3951 32.4146 21.3724 32.7162 18.9858 30.3295L17.8033 29.1471C17.3483 28.6921 17.4868 27.7484 18.1542 27.081Z" fill="#4E4E4E"/>
</svg>
