<svg id="Layer_1" data-name="Layer 1" xmlns="http://www.w3.org/2000/svg" viewBox="0 0 24.08 27.08"><title>Icon-Gifts</title><path d="M18.08,20.89h8.53v4h-11C15.57,21.7,17.24,20.89,18.08,20.89Z" transform="translate(-15.57 -13.87)" fill="#959595"/><path d="M26.61,25.91h-10V38a3,3,0,0,0,3,3h7Z" transform="translate(-15.57 -13.87)" fill="#959595"/><path d="M38.64,25.91h-10V41h7a3,3,0,0,0,3-3Z" transform="translate(-15.57 -13.87)" fill="#959595"/><path d="M39.65,24.91h-11v-4h8C39.05,20.89,39.65,23.57,39.65,24.91Z" transform="translate(-15.57 -13.87)" fill="#959595"/><path d="M27.11,19.39h1l5-3-2-2.51-3.51,3-3.51-3-2,2.51Z" transform="translate(-15.57 -13.87)" fill="#959595"/></svg>