<svg id="Layer_1" data-name="Layer 1" xmlns="http://www.w3.org/2000/svg" viewBox="0 0 31.29 26.72"><title>Icon_Home</title><path d="M411.41,688.82h4.13v12a1,1,0,0,0,1,1h12.57a1,1,0,0,0,1-1v-4.92a1,1,0,0,1,1-1h1.27a1,1,0,0,1,1,1v4.92a1,1,0,0,0,1,1h3.18a1,1,0,0,0,1-1v-12h4.14l-10.44-9.32H422Zm14.08,10.68a1,1,0,0,0,1-1v-2.62a1,1,0,0,0-1-1h-2.91a1,1,0,0,0-1,1v2.62a1,1,0,0,0,1,1Z" transform="translate(-411.41 -675.08)" fill="#6590ff" fill-rule="evenodd"/><path d="M422,679.5h10.31l-5.16-4.42Z" transform="translate(-411.41 -675.08)" fill="#6590ff"/></svg>