<svg id="Layer_1" data-name="Layer 1" xmlns="http://www.w3.org/2000/svg" viewBox="0 0 29.45 26.56"><title>Icon-Deals</title><path d="M37.88,23.91l-.29-4.48a.94.94,0,0,0-.94-.89H33.39a4,4,0,0,0,0,2.05,1.9,1.9,0,0,1,1.2,0,1.94,1.94,0,0,1-1.39,3.62A2,2,0,0,1,32,21.9a5.09,5.09,0,0,1-.44-3.36h-1a4.76,4.76,0,0,0-2.31.6l-14,7.79a2.84,2.84,0,0,0-.87,4.21L20,39.66a2.85,2.85,0,0,0,4.28.28l12.26-12.4A4.73,4.73,0,0,0,37.88,23.91Z" transform="translate(-12.86 -14.22)" fill="#959595" fill-rule="evenodd"/><path d="M32,20.77a5.22,5.22,0,1,1,6.86,3.57h0l-.45.14-.1,0a3.51,3.51,0,0,0,0-1c.17-.05.32-.11.48-.17A4.27,4.27,0,1,0,35,23.14l.13.07a1.22,1.22,0,0,1-.75.66l-.2-.13A5.19,5.19,0,0,1,32,20.77Z" transform="translate(-12.86 -14.22)" fill="#959595" fill-rule="evenodd"/></svg>