<svg id="Layer_1" data-name="Layer 1" xmlns="http://www.w3.org/2000/svg" viewBox="0 0 26.33 25.5"><title>Icon-Loyalty-Meter-Bar</title><path d="M539.94,662.69h.82a12.75,12.75,0,0,1,12.76,12.75h0a12.75,12.75,0,0,1-12.76,12.75h-.82a12.75,12.75,0,0,1-12.75-12.75h0A12.75,12.75,0,0,1,539.94,662.69Z" transform="translate(-527.19 -662.69)" fill="#d0ddff"/><path d="M535.89,669.19l-3.21,1.29,2.32.15,3.9,10.21,2.7-1.09,1.08,2.81.76-2-.52-1.36,1.19-.49.63-1.85-2.32,1-.61-1.59,1.63-.68c1.47-.68,2.35-1.16,1.52-3.28,0,0-.4-.86-1-2.42s-1.92-1.81-3.32-1.24l-2.83,1.14,3.28,8.6-1.45.59Zm7,5.29-1.5.65-1.8-4.7s1.1-.4,1.57-.59,1.27-.31,1.62.41l1,2.53C544.07,673.64,544.13,674,542.86,674.48Z" transform="translate(-527.19 -662.69)" fill="#4e4e4e" fill-rule="evenodd"/></svg>