<svg id="Layer_1" data-name="Layer 1" xmlns="http://www.w3.org/2000/svg" viewBox="0 0 22.93 21.89"><title>Icon-Profile</title><path d="M502,728.87H479.11s-.11-5.34.51-6.78a4.79,4.79,0,0,1,2.13-2.63,14.84,14.84,0,0,1,4.8-1.58,5.57,5.57,0,0,0,4.09,1.58,7.93,7.93,0,0,0,3.95-1.58,14.87,14.87,0,0,1,4.81,1.58,4.62,4.62,0,0,1,2.05,2.63C502.08,723.53,502,728.87,502,728.87Z" transform="translate(-479.1 -706.99)" fill="#959595"/><path d="M485.19,712.43a5.45,5.45,0,1,0,10.89,0,5.45,5.45,0,0,0-10.89,0Z" transform="translate(-479.1 -706.99)" fill="#959595"/></svg>