<svg width="370" height="220" viewBox="0 0 370 220" fill="none" xmlns="http://www.w3.org/2000/svg">
    <rect width="370" height="220" rx="20" fill="white"/>
    <g style="mix-blend-mode:multiply" filter="url(#filter0_i_903_1042)">
        <path fill-rule="evenodd" clip-rule="evenodd" d="M227.384 33.1568L189.614 48.8101L216.914 50.6211L262.692 173.742L294.507 160.556L307.114 194.461L316.08 170.604L309.941 154.16L324.024 148.323L331.376 125.949L304.064 138.354L296.924 119.15L316.08 111.019C333.403 102.816 343.721 96.9663 333.927 71.3933C333.927 71.3933 329.263 61.065 322.275 42.2712C315.287 23.4775 299.807 20.435 283.259 27.2935C266.71 34.1519 250.072 41.0476 250.072 41.0476L288.63 144.751L271.514 151.845L227.384 33.1568ZM309.304 96.9663L291.618 104.881L270.509 48.108C270.509 48.108 283.449 43.327 288.948 41.0476C295.248 38.437 303.817 37.3522 308.029 45.9296L320.004 76.5009C323.481 86.8875 324.252 90.827 309.304 96.9663Z" fill="#F2F2F2"/>
    </g>
    <defs>
        <filter id="filter0_i_903_1042" x="189.614" y="23.9422" width="148.106" height="174.519" filterUnits="userSpaceOnUse" color-interpolation-filters="sRGB">
            <feFlood flood-opacity="0" result="BackgroundImageFix"/>
            <feBlend mode="normal" in="SourceGraphic" in2="BackgroundImageFix" result="shape"/>
            <feColorMatrix in="SourceAlpha" type="matrix" values="0 0 0 0 0 0 0 0 0 0 0 0 0 0 0 0 0 0 127 0" result="hardAlpha"/>
            <feOffset dy="4"/>
            <feGaussianBlur stdDeviation="2"/>
            <feComposite in2="hardAlpha" operator="arithmetic" k2="-1" k3="1"/>
            <feColorMatrix type="matrix" values="0 0 0 0 0 0 0 0 0 0 0 0 0 0 0 0 0 0 0.07 0"/>
            <feBlend mode="normal" in2="shape" result="effect1_innerShadow_903_1042"/>
        </filter>
    </defs>
</svg>
