<svg width="430" height="932" viewBox="0 0 430 932" fill="none" xmlns="http://www.w3.org/2000/svg">
  <g clip-path="url(#clip0_774_726)">
    <path fill-rule="evenodd" clip-rule="evenodd" d="M456.148 240.4L460.968 215.435L203.439 165.723C204.031 100.25 158.349 41.7638 92.3443 29.0227C17.892 14.6508 -54.2242 63.9251 -68.7318 139.08C-83.2393 214.235 -34.6445 286.811 39.8078 301.183C106.777 314.11 171.856 275.543 194.819 212.965L246.545 222.949L264.735 250.116L296.503 256.248L326.751 238.432L356.017 244.081L346.254 294.66L397.946 304.638L407.709 254.06L451.866 262.584L456.148 240.4ZM76.0364 113.504C47.8058 108.055 20.461 126.739 14.9601 155.236C9.45921 183.733 27.8852 211.252 56.1158 216.701C84.3463 222.151 111.691 203.467 117.192 174.97C122.693 146.473 104.267 118.954 76.0364 113.504Z" fill="#FF7373" fill-opacity="0.08"/>
  </g>
  <defs>
    <clipPath id="clip0_774_726">
      <rect width="430" height="932" fill="white"/>
    </clipPath>
  </defs>
</svg>
