<svg width="190" height="182" viewBox="0 0 190 182" fill="none" xmlns="http://www.w3.org/2000/svg">
<g opacity="0.3">
<path d="M115.52 128.484L138.783 138.54L139.389 137.137L116.126 127.081L115.52 128.484Z" fill="#8C8C8C"/>
<path d="M137.545 141.404L114.282 131.348L113.878 132.283L137.14 142.339L137.545 141.404Z" fill="#8C8C8C"/>
<path d="M132.037 154.146L108.774 144.09L107.688 146.603L130.95 156.659L132.037 154.146Z" fill="#8C8C8C"/>
<path d="M133.3 151.223L110.037 141.168L109.633 142.103L132.896 152.159L133.3 151.223Z" fill="#8C8C8C"/>
<path d="M110.719 139.589L133.982 149.645L134.589 148.242L111.326 138.187L110.719 139.589Z" fill="#8C8C8C"/>
<path d="M129.611 159.757L106.348 149.701L105.262 152.215L128.525 162.27L129.611 159.757Z" fill="#8C8C8C"/>
<path d="M130.369 158.003L107.106 147.948L106.702 148.883L129.965 158.939L130.369 158.003Z" fill="#8C8C8C"/>
<path d="M126.821 166.212L103.558 156.157L103.154 157.092L126.416 167.148L126.821 166.212Z" fill="#8C8C8C"/>
<path d="M2.74621 120.803L10.7284 102.337C11.6239 100.266 13.6918 98.9626 15.867 98.3607C18.3389 97.6767 21.4045 96.1634 22.8516 92.8156C24.2504 89.5797 23.3647 86.4167 22.2246 84.1597C22.4921 85.7469 22.4092 87.4914 21.6457 89.2575C20.1986 92.6053 17.133 94.1185 14.6612 94.8025C12.486 95.4044 10.418 96.7074 9.52252 98.7791L1.54033 117.245C0.68818 119.216 1.04407 121.406 2.28019 122.986C2.28816 122.256 2.43835 121.515 2.74621 120.803Z" fill="#D9D9D9"/>
<path d="M140.254 149.093C140.214 149.016 140.173 148.937 140.133 148.858C140.35 150.145 140.798 151.329 141.3 152.338C141.168 151.216 140.786 150.103 140.254 149.093Z" fill="#D9D9D9"/>
<path d="M112.279 34.0454C107.87 34.5605 104.713 38.5525 105.228 42.9619C105.743 47.3714 109.735 50.5284 114.144 50.0134C118.554 49.4984 121.711 45.5064 121.196 41.0969C120.681 36.6875 116.689 33.5304 112.279 34.0454Z" fill="#6590FF"/>
<path d="M140.443 24.7008L112.841 78.0567L122.433 76.9364L150.035 23.5805L140.443 24.7008Z" fill="#6590FF"/>
<path d="M149.344 50.837C144.934 51.352 141.777 55.344 142.292 59.7534C142.807 64.1629 146.799 67.3199 151.209 66.8049C155.618 66.2899 158.775 62.2979 158.26 57.8885C157.745 53.479 153.753 50.322 149.344 50.837Z" fill="#6590FF"/>
<path d="M57.1323 88.8395C56.9727 87.4726 56.5543 86.199 55.9317 85.0618C48.9562 86.1694 42.6036 90.3381 38.9107 96.7605C39.219 97.1231 39.5515 97.4635 39.9052 97.7796C40.5987 98.3994 41.3739 98.9255 42.2098 99.3413C45.313 93.5553 50.9741 89.8611 57.1563 89.0658C57.1491 88.9905 57.1412 88.915 57.1323 88.8395Z" fill="#6590FF"/>
<path d="M146.334 121.071L143.089 121.116L145.807 122.291L146.334 121.071Z" fill="#8C8C8C"/>
<path fill-rule="evenodd" clip-rule="evenodd" d="M95.7185 135.914L94.7571 138.138C94.5785 138.551 94.7687 139.031 95.1819 139.21C95.5952 139.388 96.075 139.198 96.2536 138.785L97.215 136.561C97.3936 136.147 97.2035 135.668 96.7902 135.489C96.377 135.31 95.8972 135.501 95.7185 135.914ZM98.7551 128.889L97.7937 131.113C97.6151 131.526 97.8053 132.006 98.2185 132.185C98.6318 132.363 99.1116 132.173 99.2902 131.76L100.252 129.536C100.43 129.123 100.24 128.643 99.8268 128.464C99.4136 128.286 98.9337 128.476 98.7551 128.889ZM101.867 121.691L103.581 121.667C103.581 121.774 103.559 121.884 103.514 121.989L102.553 124.213C102.374 124.626 101.894 124.816 101.481 124.638C101.068 124.459 100.878 123.979 101.056 123.566L101.867 121.691ZM92.3055 143.809L91.3441 146.033C91.1655 146.447 91.3557 146.926 91.769 147.105C92.1822 147.284 92.662 147.094 92.8406 146.68L93.802 144.456C93.9807 144.043 93.7905 143.563 93.3772 143.385C92.964 143.206 92.4842 143.396 92.3055 143.809ZM89.0431 151.357L88.0817 153.581C87.9031 153.994 88.0933 154.474 88.5065 154.652C88.9198 154.831 89.3996 154.641 89.5782 154.228L90.5396 152.003C90.7182 151.59 90.5281 151.11 90.1148 150.932C89.7016 150.753 89.2217 150.943 89.0431 151.357ZM115.52 128.484L138.783 138.54L139.389 137.137L116.126 127.081L115.52 128.484ZM143.886 126.733L131.273 121.281L133.761 121.246L144.291 125.798L143.886 126.733ZM114.282 131.348L137.545 141.404L137.14 142.339L113.878 132.283L114.282 131.348ZM128.475 121.32L143.432 127.785L142.345 130.298L121.79 121.413L128.475 121.32ZM108.774 144.09L132.037 154.146L130.95 156.659L107.688 146.603L108.774 144.09ZM110.037 141.168L133.3 151.223L132.896 152.159L109.633 142.103L110.037 141.168ZM110.719 139.589L133.982 149.645L134.589 148.242L111.326 138.187L110.719 139.589ZM106.348 149.701L129.611 159.757L128.525 162.27L105.262 152.215L106.348 149.701ZM107.106 147.948L130.369 158.003L129.965 158.939L106.702 148.883L107.106 147.948ZM103.558 156.157L126.821 166.212L126.416 167.148L103.154 157.092L103.558 156.157ZM138.425 121.181L145.049 124.044L144.644 124.98L135.938 121.216L138.425 121.181Z" fill="#8C8C8C"/>
<path d="M78.3737 94.7863C76.4331 94.8133 74.5117 94.4752 72.7075 93.7964C79.0278 99.313 81.3673 108.481 77.8603 116.594C76.9671 118.66 75.7642 120.497 74.3293 122.074L79.6182 122.001L79.6318 121.98C80.4037 120.814 81.0838 119.564 81.658 118.236C85.1166 110.235 83.8709 101.385 79.1458 94.7755L78.3737 94.7863Z" fill="#4A70D0"/>
<path fill-rule="evenodd" clip-rule="evenodd" d="M35.5947 55.655C33.0852 55.2342 30.5185 56.555 29.4636 58.9954L21.4814 77.4613C21.0395 78.4837 20.9296 79.5858 21.058 80.68C21.0057 80.5749 20.9528 80.4718 20.8996 80.3707C19.8477 78.3738 19.38 75.9748 20.2756 73.9032L28.2578 55.4373C29.4989 52.5661 32.8325 51.2447 35.7037 52.4858L36.5054 52.8323C36.137 53.7506 35.8326 54.6938 35.5947 55.655Z" fill="#D9D9D9"/>
<path d="M143.089 121.116L146.334 121.071L123.24 110.8L122.634 112.187L143.089 121.116Z" fill="#5E5E5E"/>
<path d="M135.938 121.216L138.425 121.181L121.827 114.033L121.363 115.096L135.938 121.216Z" fill="#5E5E5E"/>
<path d="M131.273 121.281L133.761 121.246L121.01 115.904L120.621 116.794L131.273 121.281Z" fill="#5E5E5E"/>
<path d="M55.9317 85.0618C56.5543 86.199 56.9727 87.4726 57.1323 88.8395C57.1412 88.915 57.1491 88.9905 57.1563 89.0658C59.6293 88.7477 62.1857 88.8935 64.695 89.5548L56.4297 84.9881C56.2634 85.0109 56.0974 85.0355 55.9317 85.0618Z" fill="#6590FF"/>
<path d="M90.2502 164.623C89.9424 164.274 89.772 163.802 89.7713 163.32C89.7705 162.793 89.731 162.146 89.5978 161.479C89.4303 160.64 89.1146 159.769 88.5414 159.062C88.5583 159.311 88.5651 159.547 88.5655 159.762C88.5592 160.945 88.9053 163.371 90.2502 164.623Z" fill="#D9D9D9"/>
<path d="M40.805 107.276L64.1596 120.18C66.5154 121.481 69.1699 122.146 71.8612 122.109L74.3293 122.074C75.7642 120.497 76.9671 118.66 77.8603 116.594C81.3673 108.481 79.0278 99.313 72.7075 93.7964C72.0096 93.5339 71.3292 93.2203 70.6721 92.8572L64.695 89.5548C62.1857 88.8935 59.6293 88.7477 57.1563 89.0658C57.6888 94.6687 53.6455 99.6958 48.0279 100.352C45.9532 100.594 43.9501 100.207 42.2098 99.3413C41.9454 99.8342 41.6995 100.342 41.4735 100.865C40.6396 102.794 40.1362 104.783 39.9384 106.768C40.2222 106.944 40.5111 107.113 40.805 107.276Z" fill="#A4A4A4"/>
<path d="M157.864 108.328C158.764 108.717 159.511 109.312 160.076 110.033C161.312 111.614 161.668 113.803 160.815 115.774C163.402 109.792 159.121 105.946 156.658 104.77L131.838 94.0415L125.032 94.1363L157.864 108.328Z" fill="#D9D9D9"/>
<path d="M48.0279 100.352C53.6455 99.6958 57.6888 94.6687 57.1563 89.0658C50.9741 89.8611 45.313 93.5553 42.2098 99.3413C43.9501 100.207 45.9532 100.594 48.0279 100.352Z" fill="#C8C8C8"/>
<path d="M45.6199 79.7351C39.9267 80.4 35.8505 85.5543 36.5154 91.2475C36.7623 93.3614 37.6282 95.2523 38.9107 96.7605C42.6036 90.3381 48.9562 86.1694 55.9317 85.0618C55.8358 84.8866 55.7351 84.7146 55.6297 84.5461L47.3175 79.9534C47.147 79.8592 46.9782 79.7627 46.8111 79.664C46.4176 79.665 46.0201 79.6883 45.6199 79.7351Z" fill="#C8C8C8"/>
<path fill-rule="evenodd" clip-rule="evenodd" d="M163.062 2.71715L70.4043 23.3018C67.5435 23.9374 64.9219 25.372 62.8443 27.4387L43.1832 46.9978C41.2147 48.956 39.6731 51.2511 38.6078 53.7411C38.241 54.5984 37.9307 55.4788 37.6789 56.3765C36.936 59.0251 36.7022 61.8244 37.0293 64.6258C37.3246 67.1535 38.0892 69.5648 39.2514 71.7527C40.5364 74.1718 42.3074 76.3178 44.4672 78.046C45.2045 78.636 45.9871 79.1772 46.8111 79.664C46.9782 79.7627 47.147 79.8592 47.3175 79.9534L55.6297 84.5461L56.4297 84.9881L64.695 89.5548L70.6721 92.8572C71.3292 93.2203 72.0096 93.5339 72.7075 93.7964C74.5117 94.4752 76.4331 94.8133 78.3737 94.7863L79.1458 94.7755L113.255 94.3004L118.858 94.2223L125.032 94.1363L131.838 94.0415L173.66 93.4589C176.3 93.4222 178.764 92.7306 180.91 91.547C186.219 88.6179 189.577 82.6754 188.819 76.1854L181.794 16.0324C181.211 11.0443 178.337 6.93117 174.386 4.55607C171.119 2.59223 167.115 1.81661 163.062 2.71715ZM46.4177 70.4573C45.3802 69.5301 44.5257 68.3934 43.9252 67.1032C43.4695 66.1241 43.1601 65.0565 43.028 63.9252C42.8244 62.1826 43.0651 60.4905 43.6604 58.9621C44.0022 58.0845 44.4609 57.2609 45.0196 56.5127C46.6667 54.3071 49.1825 52.7573 52.1324 52.4128C54.1868 52.1728 56.171 52.5502 57.8994 53.3982C58.0478 53.471 58.1944 53.5473 58.3389 53.627C61.1756 55.1905 63.2405 58.0548 63.6449 61.5172C63.765 62.5458 63.7304 63.5568 63.5594 64.5269C63.3949 65.4606 63.104 66.3565 62.7033 67.1937C61.2159 70.3011 58.215 72.6005 54.5404 73.0297C51.4693 73.3883 48.5551 72.3675 46.4177 70.4573ZM112.841 78.0567L140.443 24.7008L150.035 23.5805L122.433 76.9364L112.841 78.0567ZM142.292 59.7534C141.777 55.344 144.934 51.352 149.344 50.837C153.753 50.322 157.745 53.479 158.26 57.8885C158.775 62.2979 155.618 66.2899 151.209 66.8049C146.799 67.3199 142.807 64.1629 142.292 59.7534ZM105.228 42.9619C104.713 38.5525 107.87 34.5605 112.279 34.0454C116.689 33.5304 120.681 36.6875 121.196 41.0969C121.711 45.5064 118.554 49.4984 114.144 50.0134C109.735 50.5284 105.743 47.3714 105.228 42.9619Z" fill="#B6B6B6"/>
<path d="M101.867 121.691L103.581 121.667C103.581 121.663 103.581 121.659 103.581 121.656C103.581 121.652 103.581 121.648 103.581 121.645L103.581 121.639L103.581 121.635C103.58 121.628 103.58 121.621 103.58 121.614C103.579 121.607 103.579 121.6 103.578 121.593C103.552 121.305 103.373 121.04 103.089 120.917C102.676 120.738 102.196 120.929 102.018 121.342L101.867 121.691Z" fill="#5E5E5E"/>
<path fill-rule="evenodd" clip-rule="evenodd" d="M103.581 121.656C103.581 121.652 103.581 121.648 103.581 121.645L103.581 121.639C103.581 121.644 103.581 121.65 103.581 121.656Z" fill="#C8C8C8"/>
<path d="M105.799 117.15L106.76 114.926C106.939 114.512 106.749 114.032 106.336 113.854C105.922 113.675 105.442 113.865 105.264 114.279L104.302 116.503C104.124 116.916 104.314 117.396 104.727 117.574C105.141 117.753 105.62 117.563 105.799 117.15Z" fill="#5E5E5E"/>
<path d="M109.09 110.021L110.052 107.797C110.23 107.384 110.04 106.904 109.627 106.726C109.214 106.547 108.734 106.737 108.555 107.15L107.594 109.374C107.415 109.788 107.605 110.267 108.019 110.446C108.432 110.625 108.912 110.435 109.09 110.021Z" fill="#5E5E5E"/>
<path d="M112.275 103L113.237 100.776C113.415 100.363 113.225 99.8828 112.812 99.7042C112.399 99.5255 111.919 99.7157 111.74 100.129L110.779 102.353C110.6 102.766 110.79 103.246 111.204 103.425C111.617 103.603 112.097 103.413 112.275 103Z" fill="#5E5E5E"/>
<path d="M121.79 121.413L128.475 121.32L120.192 117.776L119.091 120.296L121.79 121.413Z" fill="#5E5E5E"/>
<path d="M64.1596 120.18L40.805 107.276C40.5111 107.113 40.2222 106.944 39.9384 106.768C39.1058 115.123 43.6837 123.414 51.8025 126.923C59.7841 130.373 68.7869 128.165 74.3293 122.074L71.8612 122.109C69.1699 122.146 66.5154 121.481 64.1596 120.18Z" fill="#C8C8C8"/>
<path fill-rule="evenodd" clip-rule="evenodd" d="M160.076 110.033C159.511 109.312 158.764 108.717 157.864 108.328L125.032 94.1363L118.858 94.2223C117.631 95.0544 115.986 95.7002 114.304 94.973C113.897 94.7971 113.55 94.5677 113.255 94.3004L79.1458 94.7755C83.8709 101.385 85.1166 110.235 81.658 118.236C81.0838 119.564 80.4037 120.814 79.6318 121.98L79.6182 122.001L101.867 121.691L102.018 121.342C102.196 120.929 102.676 120.738 103.089 120.917C103.373 121.04 103.552 121.305 103.578 121.593C103.579 121.6 103.579 121.607 103.58 121.614C103.58 121.621 103.58 121.628 103.581 121.635L103.581 121.639L103.581 121.645L103.581 121.656C103.581 121.659 103.581 121.663 103.581 121.667L121.79 121.413L119.091 120.296L120.192 117.776L128.475 121.32L131.273 121.281L120.621 116.794L121.01 115.904L133.761 121.246L135.938 121.216L121.363 115.096L121.827 114.033L138.425 121.181L143.089 121.116L122.634 112.187L123.24 110.8L146.334 121.071L158.6 120.9L160.815 115.774C161.668 113.803 161.312 111.614 160.076 110.033ZM106.76 114.926L105.799 117.15C105.62 117.563 105.141 117.753 104.727 117.574C104.314 117.396 104.124 116.916 104.302 116.503L105.264 114.279C105.442 113.865 105.922 113.675 106.336 113.854C106.749 114.032 106.939 114.512 106.76 114.926ZM110.052 107.797L109.09 110.021C108.912 110.435 108.432 110.625 108.019 110.446C107.605 110.267 107.415 109.788 107.594 109.374L108.555 107.15C108.734 106.737 109.214 106.547 109.627 106.726C110.04 106.904 110.23 107.384 110.052 107.797ZM113.237 100.776L112.275 103C112.097 103.413 111.617 103.603 111.204 103.425C110.79 103.246 110.6 102.766 110.779 102.353L111.74 100.129C111.919 99.7157 112.399 99.5255 112.812 99.7042C113.225 99.8828 113.415 100.363 113.237 100.776Z" fill="#A4A4A4"/>
<path d="M118.858 94.2223L113.255 94.3004C113.55 94.5677 113.897 94.7971 114.304 94.973C115.986 95.7002 117.631 95.0544 118.858 94.2223Z" fill="#BCBCBC"/>
<path d="M58.3389 53.627C60.1638 55.2578 61.4224 57.537 61.7287 60.1591C61.8691 61.3612 61.7981 62.5393 61.5451 63.6562C61.3368 64.5759 61.0051 65.4541 60.5665 66.27C59.015 69.1558 56.1253 71.2626 52.6242 71.6715C50.3934 71.9321 48.2454 71.4647 46.4177 70.4573C48.5551 72.3675 51.4693 73.3883 54.5404 73.0297C58.215 72.6005 61.2159 70.3011 62.7033 67.1937C63.104 66.3565 63.3949 65.4606 63.5594 64.5269C63.7304 63.5568 63.765 62.5458 63.6449 61.5172C63.2405 58.0548 61.1756 55.1905 58.3389 53.627Z" fill="#D9D9D9"/>
<path fill-rule="evenodd" clip-rule="evenodd" d="M34.0487 101.21C34.6961 102.132 35.4209 103 36.2162 103.804C36.542 102.261 37.0258 100.727 37.6758 99.2236C38.0449 98.3697 38.4578 97.5481 38.9107 96.7605C37.6282 95.2523 36.7623 93.3614 36.5154 91.2475C35.8505 85.5543 39.9267 80.4 45.6199 79.7351C46.0201 79.6883 46.4176 79.665 46.8111 79.664C45.9871 79.1772 45.2045 78.636 44.4672 78.046C42.1155 76.577 40.1194 74.657 38.5736 72.4271L36.6707 74.3201C34.6382 76.342 33.0607 78.723 31.9928 81.307C31.9645 81.3755 31.9366 81.444 31.9091 81.5127C31.5649 82.3707 31.2766 83.2503 31.0462 84.1461C31.0299 84.2091 31.014 84.2722 30.9984 84.3354C30.3897 86.794 30.2157 89.3702 30.5168 91.9481C30.8807 95.0633 31.9576 98.0019 33.613 100.563C33.7305 100.745 33.851 100.925 33.9744 101.103L33.9773 101.107C33.9882 101.123 33.9992 101.139 34.0102 101.155C34.023 101.173 34.0359 101.192 34.0487 101.21Z" fill="#A4A4A4"/>
<path fill-rule="evenodd" clip-rule="evenodd" d="M29.4636 58.9954L21.4814 77.4613C21.0395 78.4837 20.9296 79.5858 21.058 80.68C21.56 81.6883 22.0076 82.8723 22.2246 84.1597C23.3647 86.4167 24.2504 89.5797 22.8516 92.8156C21.4045 96.1634 18.3389 97.6767 15.867 98.3607C13.6918 98.9626 11.6239 100.266 10.7284 102.337L2.74621 120.803C2.43835 121.515 2.28816 122.256 2.28019 122.986C2.25601 125.199 3.53871 127.316 5.69768 128.249L79.3331 160.079C80.0057 160.37 80.7916 160.171 81.3261 159.67C82.5064 158.563 84.757 156.95 87.0795 157.954C87.6938 158.219 88.1712 158.606 88.5414 159.062C89.1146 159.769 89.4303 160.64 89.5978 161.479C89.731 162.146 89.7705 162.793 89.7713 163.32C89.772 163.802 89.9424 164.274 90.2502 164.623C90.4283 164.788 90.6238 164.934 90.8384 165.053L126.652 180.534C129.523 181.775 132.857 180.453 134.098 177.582L142.082 159.112C142.977 157.043 142.511 154.646 141.46 152.651C141.406 152.549 141.353 152.444 141.3 152.338C140.798 151.329 140.35 150.145 140.133 148.858C139.865 147.27 139.947 145.526 140.71 143.762C142.156 140.416 145.226 138.903 147.699 138.218C149.872 137.617 151.937 136.314 152.831 134.244L158.6 120.9L146.334 121.071L145.807 122.291L143.089 121.116L138.425 121.181L145.049 124.044L144.644 124.98L135.938 121.216L133.761 121.246L144.291 125.798L143.886 126.733L131.273 121.281L128.475 121.32L143.432 127.785L142.345 130.298L121.79 121.413L103.581 121.667C103.581 121.774 103.559 121.884 103.514 121.989L102.553 124.213C102.374 124.626 101.894 124.816 101.481 124.638C101.068 124.459 100.878 123.979 101.056 123.566L101.867 121.691L79.6182 122.001C78.836 123.179 77.9599 124.272 77.0046 125.273C70.2787 132.32 59.6257 134.812 50.1609 130.721C39.519 126.121 33.9101 114.725 36.2162 103.804C35.4209 103 34.6961 102.132 34.0487 101.21C34.0359 101.192 34.023 101.173 34.0102 101.155C33.9992 101.139 33.9882 101.123 33.9773 101.107L33.9744 101.103C33.851 100.925 33.7305 100.745 33.613 100.563C31.9576 98.0019 30.8807 95.0633 30.5168 91.9481C30.2157 89.3702 30.3897 86.794 30.9984 84.3354C31.014 84.2722 31.0299 84.2091 31.0462 84.1461C31.2766 83.2503 31.5649 82.3707 31.9091 81.5127C31.9366 81.444 31.9645 81.3755 31.9928 81.307C33.0607 78.723 34.6382 76.342 36.6707 74.3201L38.5736 72.4271C36.7117 69.7413 35.503 66.6059 35.1131 63.2677C34.812 60.6897 34.986 58.1135 35.5947 55.655C33.0852 55.2342 30.5185 56.555 29.4636 58.9954ZM94.7571 138.138L95.7185 135.914C95.8972 135.501 96.377 135.31 96.7902 135.489C97.2035 135.668 97.3936 136.147 97.215 136.561L96.2536 138.785C96.075 139.198 95.5952 139.388 95.1819 139.21C94.7687 139.031 94.5785 138.551 94.7571 138.138ZM97.7937 131.113L98.7551 128.889C98.9337 128.476 99.4136 128.286 99.8268 128.464C100.24 128.643 100.43 129.123 100.252 129.536L99.2902 131.76C99.1116 132.173 98.6318 132.363 98.2185 132.185C97.8053 132.006 97.6151 131.526 97.7937 131.113ZM91.3441 146.033L92.3055 143.809C92.4842 143.396 92.964 143.206 93.3772 143.385C93.7905 143.563 93.9807 144.043 93.802 144.456L92.8406 146.68C92.662 147.094 92.1822 147.284 91.769 147.105C91.3557 146.926 91.1655 146.447 91.3441 146.033ZM88.0817 153.581L89.0431 151.357C89.2217 150.943 89.7016 150.753 90.1148 150.932C90.5281 151.11 90.7182 151.59 90.5396 152.003L89.5782 154.228C89.3996 154.641 88.9198 154.831 88.5065 154.652C88.0933 154.474 87.9031 153.994 88.0817 153.581ZM138.783 138.54L115.52 128.484L116.126 127.081L139.389 137.137L138.783 138.54ZM137.545 141.404L114.282 131.348L113.878 132.283L137.14 142.339L137.545 141.404ZM132.037 154.146L108.774 144.09L107.688 146.603L130.95 156.659L132.037 154.146ZM133.3 151.223L110.037 141.168L109.633 142.103L132.896 152.159L133.3 151.223ZM133.982 149.645L110.719 139.589L111.326 138.187L134.589 148.242L133.982 149.645ZM129.611 159.757L106.348 149.701L105.262 152.215L128.525 162.27L129.611 159.757ZM130.369 158.003L107.106 147.948L106.702 148.883L129.965 158.939L130.369 158.003ZM126.821 166.212L103.558 156.157L103.154 157.092L126.416 167.148L126.821 166.212Z" fill="#C8C8C8"/>
<path d="M60.5665 66.27C61.0051 65.4541 61.3368 64.5759 61.5451 63.6562L51.6778 59.3909L49.5498 61.5079L60.5665 66.27Z" fill="#BCBCBC"/>
<path d="M46.4177 70.4573C48.2454 71.4647 50.3934 71.9321 52.6242 71.6715C56.1253 71.2626 59.015 69.1558 60.5665 66.27L49.5498 61.5079L43.9252 67.1032C44.5257 68.3934 45.3802 69.5301 46.4177 70.4573Z" fill="#A4A4A4"/>
<path d="M45.0196 56.5127C44.4609 57.2609 44.0022 58.0845 43.6604 58.9621L49.5498 61.5079L51.6778 59.3909L45.0196 56.5127Z" fill="#D9D9D9"/>
<path d="M43.6604 58.9621C43.0651 60.4905 42.8244 62.1826 43.028 63.9252C43.1601 65.0565 43.4695 66.1241 43.9252 67.1032L49.5498 61.5079L43.6604 58.9621Z" fill="#C8C8C8"/>
<path fill-rule="evenodd" clip-rule="evenodd" d="M68.4881 21.9437L161.146 1.35902C166.033 0.273279 170.847 1.62397 174.386 4.55607C171.119 2.59223 167.115 1.81661 163.062 2.71715L70.4043 23.3018C67.5435 23.9374 64.9219 25.372 62.8443 27.4387L43.1832 46.9978C41.2147 48.956 39.6731 51.2511 38.6078 53.7411C38.241 54.5984 37.9307 55.4788 37.6789 56.3765C36.936 59.0251 36.7022 61.8244 37.0293 64.6258C37.3246 67.1535 38.0892 69.5648 39.2514 71.7527L38.5736 72.4271C36.7117 69.7413 35.503 66.6059 35.1131 63.2677C34.812 60.6897 34.986 58.1135 35.5947 55.655C35.8326 54.6938 36.137 53.7506 36.5054 52.8323C37.5738 50.169 39.1806 47.7151 41.267 45.6396L60.9281 26.0806C63.0057 24.0138 65.6273 22.5792 68.4881 21.9437Z" fill="#D9D9D9"/>
<path d="M38.5736 72.4271C40.1194 74.657 42.1155 76.577 44.4672 78.046C42.3074 76.3178 40.5364 74.1718 39.2514 71.7527L38.5736 72.4271Z" fill="#D9D9D9"/>
<path fill-rule="evenodd" clip-rule="evenodd" d="M37.6758 99.2236C37.0258 100.727 36.542 102.261 36.2162 103.804C36.7631 104.356 37.3433 104.879 37.9547 105.368C38.5838 105.872 39.2458 106.34 39.9384 106.768C40.1362 104.783 40.6396 102.794 41.4735 100.865C41.6995 100.342 41.9454 99.8342 42.2098 99.3413C41.3739 98.9255 40.5987 98.3994 39.9052 97.7796C39.5515 97.4635 39.219 97.1231 38.9107 96.7605C38.4578 97.5481 38.0449 98.3697 37.6758 99.2236Z" fill="#4A70D0"/>
<path d="M79.6182 122.001L74.3293 122.074C68.7869 128.165 59.7841 130.373 51.8025 126.923C43.6837 123.414 39.1058 115.123 39.9384 106.768C39.2458 106.34 38.5838 105.872 37.9547 105.368C37.3433 104.879 36.7631 104.356 36.2162 103.804C33.9101 114.725 39.519 126.121 50.1609 130.721C59.6257 134.812 70.2787 132.32 77.0046 125.273C77.9599 124.272 78.836 123.179 79.6182 122.001Z" fill="#6590FF"/>
<path d="M22.2246 84.1597C23.3647 86.4167 24.2504 89.5797 22.8516 92.8156C21.4045 96.1634 18.3389 97.6767 15.867 98.3607C13.6918 98.9626 11.6239 100.266 10.7284 102.337L2.74621 120.803C2.43835 121.515 2.28816 122.256 2.28019 122.986M22.2246 84.1597C22.4921 85.7469 22.4092 87.4914 21.6457 89.2575C20.1986 92.6053 17.133 94.1185 14.6612 94.8025C12.486 95.4045 10.418 96.7074 9.52252 98.7791L1.54033 117.245C0.68818 119.216 1.04407 121.406 2.28019 122.986M22.2246 84.1597C22.0076 82.8723 21.56 81.6883 21.058 80.68M2.28019 122.986C2.25601 125.199 3.53871 127.316 5.69768 128.249L79.3331 160.079C80.0057 160.37 80.7916 160.171 81.3261 159.67C82.5064 158.563 84.757 156.95 87.0795 157.954C87.6938 158.219 88.1712 158.606 88.5414 159.062M140.133 148.858C140.173 148.937 140.214 149.016 140.254 149.093C140.786 150.103 141.168 151.216 141.3 152.338M140.133 148.858C140.35 150.145 140.798 151.329 141.3 152.338M140.133 148.858C139.865 147.27 139.947 145.526 140.71 143.762C142.156 140.416 145.226 138.903 147.699 138.218C149.872 137.617 151.937 136.314 152.831 134.244L158.6 120.9M141.3 152.338C141.353 152.444 141.406 152.549 141.46 152.651C142.511 154.646 142.977 157.043 142.082 159.112L134.098 177.582C132.857 180.453 129.523 181.775 126.652 180.534L90.8384 165.053C90.6238 164.934 90.4283 164.788 90.2502 164.623M55.9317 85.0618C56.5543 86.199 56.9727 87.4727 57.1323 88.8395C57.1412 88.915 57.1491 88.9905 57.1563 89.0658M55.9317 85.0618C48.9562 86.1694 42.6036 90.338 38.9107 96.7605M55.9317 85.0618C56.0974 85.0355 56.2634 85.0109 56.4297 84.9881M55.9317 85.0618C55.8358 84.8866 55.7351 84.7146 55.6297 84.5461M38.9107 96.7605C39.219 97.1231 39.5515 97.4635 39.9052 97.7796C40.5987 98.3994 41.3739 98.9255 42.2098 99.3413M38.9107 96.7605C37.6282 95.2524 36.7623 93.3614 36.5154 91.2475C35.8505 85.5543 39.9267 80.4 45.6199 79.7351C46.0201 79.6883 46.4176 79.665 46.8111 79.664M38.9107 96.7605C38.4578 97.5481 38.0449 98.3697 37.6758 99.2236C37.0258 100.727 36.542 102.261 36.2162 103.804M42.2098 99.3413C45.313 93.5553 50.9741 89.8611 57.1563 89.0658M42.2098 99.3413C43.9501 100.207 45.9532 100.594 48.0279 100.352C53.6455 99.6958 57.6888 94.6687 57.1563 89.0658M42.2098 99.3413C41.9454 99.8342 41.6995 100.342 41.4735 100.865C40.6396 102.794 40.1362 104.783 39.9384 106.768M57.1563 89.0658C59.6293 88.7477 62.1857 88.8935 64.695 89.5548M146.334 121.071L143.089 121.116M146.334 121.071L145.807 122.291L143.089 121.116M146.334 121.071L123.24 110.8L122.634 112.187L143.089 121.116M146.334 121.071L158.6 120.9M143.089 121.116L138.425 121.181M101.867 121.691L103.581 121.667M101.867 121.691L101.056 123.566C100.878 123.979 101.068 124.459 101.481 124.638C101.894 124.816 102.374 124.626 102.553 124.213L103.514 121.989C103.559 121.884 103.581 121.774 103.581 121.667M101.867 121.691L102.018 121.342C102.196 120.929 102.676 120.738 103.089 120.917C103.373 121.04 103.552 121.305 103.578 121.593C103.579 121.6 103.579 121.607 103.58 121.614C103.58 121.621 103.58 121.628 103.581 121.635L103.581 121.639M101.867 121.691L79.6182 122.001M103.581 121.667C103.581 121.663 103.581 121.659 103.581 121.656M103.581 121.667L121.79 121.413M131.273 121.281L143.886 126.733L144.291 125.798L133.761 121.246M131.273 121.281L133.761 121.246M131.273 121.281L120.621 116.794L121.01 115.904L133.761 121.246M131.273 121.281L128.475 121.32M133.761 121.246L135.938 121.216M128.475 121.32L143.432 127.785L142.345 130.298L121.79 121.413M128.475 121.32L121.79 121.413M128.475 121.32L120.192 117.776L119.091 120.296L121.79 121.413M138.425 121.181L145.049 124.044L144.644 124.98L135.938 121.216M138.425 121.181L135.938 121.216M138.425 121.181L121.827 114.033L121.363 115.096L135.938 121.216M72.7075 93.7964C74.5117 94.4751 76.4331 94.8133 78.3737 94.7863L79.1458 94.7755M72.7075 93.7964C79.0278 99.313 81.3673 108.481 77.8603 116.594C76.9671 118.66 75.7642 120.497 74.3293 122.074M72.7075 93.7964C72.0096 93.5339 71.3292 93.2203 70.6721 92.8572L64.695 89.5548M74.3293 122.074L79.6182 122.001M74.3293 122.074L71.8612 122.109C69.1699 122.146 66.5154 121.481 64.1596 120.18L40.805 107.276C40.5111 107.113 40.2222 106.944 39.9384 106.768M74.3293 122.074C68.7869 128.165 59.7841 130.373 51.8025 126.923C43.6837 123.414 39.1058 115.123 39.9384 106.768M79.6182 122.001L79.6318 121.98C80.4037 120.814 81.0838 119.564 81.658 118.236C85.1166 110.235 83.8709 101.385 79.1458 94.7755M79.6182 122.001C78.836 123.179 77.9599 124.272 77.0046 125.273C70.2787 132.32 59.6257 134.812 50.1609 130.721C39.519 126.121 33.9101 114.725 36.2162 103.804M79.1458 94.7755L113.255 94.3004M35.5947 55.655C33.0852 55.2342 30.5185 56.555 29.4636 58.9954L21.4814 77.4613C21.0395 78.4837 20.9296 79.5858 21.058 80.68M35.5947 55.655C35.8326 54.6938 36.137 53.7506 36.5054 52.8323M35.5947 55.655C34.986 58.1135 34.812 60.6897 35.1131 63.2677C35.503 66.6059 36.7117 69.7413 38.5736 72.4271M21.058 80.68C21.0057 80.5749 20.9528 80.4718 20.8996 80.3707C19.8477 78.3738 19.38 75.9748 20.2756 73.9032L28.2578 55.4373C29.4989 52.5661 32.8325 51.2447 35.7037 52.4858L36.5054 52.8323M36.5054 52.8323C37.5738 50.169 39.1806 47.7151 41.267 45.6396L60.9281 26.0806C63.0057 24.0138 65.6273 22.5792 68.4881 21.9437L161.146 1.35902C166.033 0.273279 170.847 1.62397 174.386 4.55607M64.695 89.5548L56.4297 84.9881M56.4297 84.9881L55.6297 84.5461M90.2502 164.623C89.9424 164.274 89.772 163.802 89.7713 163.32C89.7705 162.793 89.7311 162.146 89.5978 161.479C89.4303 160.64 89.1146 159.769 88.5414 159.062M90.2502 164.623C88.9053 163.371 88.5592 160.945 88.5655 159.762C88.5651 159.547 88.5584 159.311 88.5414 159.062M39.9384 106.768C39.2458 106.34 38.5838 105.872 37.9547 105.368C37.3433 104.879 36.7631 104.356 36.2162 103.804M160.815 115.774C161.668 113.803 161.312 111.614 160.076 110.033C159.511 109.312 158.764 108.717 157.864 108.328L125.032 94.1363M160.815 115.774C163.402 109.792 159.121 105.946 156.658 104.77L131.838 94.0415M160.815 115.774L158.6 120.9M131.838 94.0415L125.032 94.1363M131.838 94.0415L173.66 93.4589C176.3 93.4222 178.764 92.7306 180.91 91.547C186.219 88.6179 189.577 82.6754 188.819 76.1854L181.794 16.0324C181.211 11.0443 178.337 6.93117 174.386 4.55607M125.032 94.1363L118.858 94.2223M55.6297 84.5461L47.3175 79.9534C47.147 79.8592 46.9782 79.7627 46.8111 79.664M46.8111 79.664C45.9871 79.1772 45.2045 78.636 44.4672 78.046M39.2514 71.7527C38.0892 69.5648 37.3246 67.1535 37.0293 64.6258C36.7022 61.8244 36.936 59.0251 37.6789 56.3765C37.9307 55.4788 38.241 54.5984 38.6078 53.7411C39.6731 51.2511 41.2147 48.956 43.1832 46.9978L62.8443 27.4387C64.9219 25.372 67.5436 23.9374 70.4043 23.3018L163.062 2.71715C167.115 1.81661 171.119 2.59223 174.386 4.55607M39.2514 71.7527C40.5364 74.1718 42.3074 76.3178 44.4672 78.046M39.2514 71.7527L38.5736 72.4271M44.4672 78.046C42.1155 76.577 40.1194 74.657 38.5736 72.4271M113.255 94.3004L118.858 94.2223M113.255 94.3004C113.55 94.5677 113.897 94.7971 114.304 94.973C115.986 95.7002 117.631 95.0544 118.858 94.2223M46.4177 70.4573C45.3802 69.5301 44.5257 68.3934 43.9252 67.1032M46.4177 70.4573C48.5551 72.3675 51.4693 73.3883 54.5404 73.0297C58.215 72.6005 61.2159 70.3011 62.7033 67.1937C63.104 66.3565 63.3949 65.4606 63.5594 64.5269C63.7304 63.5568 63.765 62.5458 63.6449 61.5172C63.2405 58.0548 61.1756 55.1905 58.3389 53.627M46.4177 70.4573C48.2454 71.4647 50.3934 71.9321 52.6242 71.6715C56.1253 71.2626 59.015 69.1558 60.5665 66.27M43.9252 67.1032C43.4695 66.1241 43.1601 65.0566 43.028 63.9252C42.8244 62.1826 43.0651 60.4905 43.6604 58.9621M43.9252 67.1032L49.5498 61.5079M43.6604 58.9621C44.0022 58.0845 44.4609 57.2609 45.0196 56.5127M43.6604 58.9621L49.5498 61.5079M45.0196 56.5127C46.6667 54.3071 49.1825 52.7573 52.1324 52.4128C54.1868 52.1728 56.171 52.5502 57.8994 53.3982C58.0478 53.471 58.1944 53.5473 58.3389 53.627M45.0196 56.5127L51.6778 59.3909M58.3389 53.627C60.1638 55.2578 61.4224 57.537 61.7287 60.1591C61.8691 61.3612 61.7981 62.5393 61.5451 63.6562M103.581 121.656C103.581 121.652 103.581 121.648 103.581 121.645M103.581 121.656C103.581 121.65 103.581 121.644 103.581 121.639M103.581 121.656L103.581 121.645M103.581 121.645L103.581 121.639M61.5451 63.6562C61.3368 64.5759 61.0051 65.4541 60.5665 66.27M61.5451 63.6562L51.6778 59.3909M60.5665 66.27L49.5498 61.5079M36.2162 103.804C35.4209 103 34.6961 102.132 34.0487 101.21C34.0359 101.192 34.023 101.173 34.0102 101.155C33.9992 101.139 33.9882 101.123 33.9773 101.107L33.9744 101.103C33.851 100.925 33.7305 100.745 33.613 100.563C31.9576 98.0019 30.8807 95.0634 30.5168 91.9481C30.2157 89.3702 30.3897 86.794 30.9984 84.3354C31.014 84.2722 31.0299 84.2091 31.0462 84.1461C31.2766 83.2503 31.5649 82.3707 31.9091 81.5127C31.9366 81.444 31.9645 81.3755 31.9928 81.307C33.0607 78.723 34.6382 76.342 36.6707 74.3201L38.5736 72.4271M51.6778 59.3909L49.5498 61.5079M115.52 128.484L138.783 138.54L139.389 137.137L116.126 127.081L115.52 128.484ZM137.545 141.404L114.282 131.348L113.878 132.283L137.14 142.339L137.545 141.404ZM132.037 154.146L108.774 144.09L107.688 146.603L130.95 156.659L132.037 154.146ZM133.3 151.223L110.037 141.168L109.633 142.103L132.896 152.159L133.3 151.223ZM110.719 139.589L133.982 149.645L134.589 148.242L111.326 138.187L110.719 139.589ZM129.611 159.757L106.348 149.701L105.262 152.215L128.525 162.27L129.611 159.757ZM130.369 158.003L107.106 147.948L106.702 148.883L129.965 158.939L130.369 158.003ZM126.821 166.212L103.558 156.157L103.154 157.092L126.416 167.148L126.821 166.212ZM112.279 34.0454C107.87 34.5605 104.713 38.5525 105.228 42.9619C105.743 47.3714 109.735 50.5284 114.144 50.0134C118.554 49.4984 121.711 45.5064 121.196 41.0969C120.681 36.6875 116.689 33.5304 112.279 34.0454ZM140.443 24.7008L112.841 78.0567L122.433 76.9364L150.035 23.5805L140.443 24.7008ZM149.344 50.837C144.934 51.352 141.777 55.344 142.292 59.7534C142.807 64.1629 146.799 67.3199 151.209 66.8049C155.618 66.2899 158.775 62.2979 158.26 57.8885C157.745 53.479 153.753 50.322 149.344 50.837ZM95.7185 135.914L94.7571 138.138C94.5785 138.551 94.7687 139.031 95.1819 139.21C95.5952 139.388 96.075 139.198 96.2536 138.785L97.215 136.561C97.3936 136.147 97.2035 135.668 96.7902 135.489C96.377 135.31 95.8972 135.501 95.7185 135.914ZM98.7551 128.889L97.7937 131.113C97.6151 131.526 97.8053 132.006 98.2185 132.185C98.6318 132.363 99.1116 132.173 99.2902 131.76L100.252 129.536C100.43 129.123 100.24 128.643 99.8268 128.464C99.4136 128.286 98.9337 128.476 98.7551 128.889ZM92.3055 143.809L91.3441 146.033C91.1655 146.447 91.3557 146.927 91.769 147.105C92.1822 147.284 92.662 147.094 92.8406 146.68L93.802 144.456C93.9807 144.043 93.7905 143.563 93.3772 143.385C92.964 143.206 92.4842 143.396 92.3055 143.809ZM89.0431 151.357L88.0817 153.581C87.9031 153.994 88.0933 154.474 88.5065 154.652C88.9198 154.831 89.3996 154.641 89.5782 154.228L90.5396 152.003C90.7182 151.59 90.5281 151.11 90.1148 150.932C89.7016 150.753 89.2217 150.943 89.0431 151.357ZM105.799 117.15L106.76 114.926C106.939 114.512 106.749 114.032 106.336 113.854C105.922 113.675 105.442 113.865 105.264 114.279L104.302 116.503C104.124 116.916 104.314 117.396 104.727 117.574C105.14 117.753 105.62 117.563 105.799 117.15ZM109.09 110.021L110.052 107.797C110.23 107.384 110.04 106.904 109.627 106.726C109.214 106.547 108.734 106.737 108.555 107.15L107.594 109.374C107.415 109.788 107.605 110.267 108.019 110.446C108.432 110.625 108.912 110.435 109.09 110.021ZM112.275 103L113.237 100.776C113.415 100.363 113.225 99.8828 112.812 99.7042C112.399 99.5255 111.919 99.7157 111.74 100.129L110.779 102.353C110.6 102.766 110.79 103.246 111.204 103.425C111.617 103.603 112.097 103.413 112.275 103Z" stroke="#373737" stroke-opacity="0.15"/>
</g>
</svg>
