<svg width="196" height="150" viewBox="0 0 196 150" fill="none" xmlns="http://www.w3.org/2000/svg">
    <g opacity="0.3">
        <path d="M110.422 16.9325C110.422 16.9325 111.227 16.9964 112.277 16.7881C114.121 16.4218 116.721 15.2141 117.029 11.3382C117.029 11.3382 112.694 8.0248 101.745 7.16142C90.7959 6.29804 85.9955 8.89116 85.9955 8.89116C85.692 12.7674 88.0705 14.3677 89.8351 15.0185C90.8388 15.3887 91.644 15.4518 91.644 15.4518L110.422 16.9325Z" fill="#656565"/>
        <path d="M84.8187 23.1386C84.8187 23.1386 84.7862 24.2272 81.7596 23.9885C75.2436 23.4747 75.0525 22.7029 75.3326 22.3467C75.3326 22.3467 75.4229 21.2018 75.9786 19.5318L31.9955 16.0636C19.459 15.075 16.3349 16.385 12.7717 18.6469C12.8063 18.6817 12.7374 18.608 12.7717 18.6469C13.8264 19.8464 14.9166 22.0242 14.9166 22.0242C15.8502 23.9639 15.8041 24.5482 14.8369 36.8149C15.8041 24.5482 24.8078 21.3163 40.9136 22.5863L168.967 32.6836C190.037 35.0398 192.902 45.4661 192.391 52.0086C193.688 35.5421 187.491 30.4254 184.915 29.4032C184.41 29.2027 183.891 29.0226 183.361 28.8634C178.504 27.7569 168.568 26.8783 160.411 26.1911C160.289 26.1804 160.169 26.1703 160.049 26.1609L125.254 23.4173C125.542 25.1538 125.451 26.2987 125.451 26.2987C125.614 26.6899 125.362 27.4267 120.746 27.0626C120.264 27.0247 119.833 26.9791 119.446 26.928C119.416 26.924 119.386 26.9199 119.356 26.9158C116.076 26.4659 116.144 25.6086 116.144 25.6086C116.144 25.6086 116.222 24.3397 115.609 22.6567L85.721 20.3C85.3708 20.9668 85.1553 21.5795 85.0232 22.0635C84.8445 22.7188 84.8187 23.1386 84.8187 23.1386Z" fill="#D9D9D9"/>
        <path d="M187.148 85.3908L187.309 83.3514C184.782 86.1675 181.112 87.808 177.45 88.7545C170.94 90.4371 164.453 89.9256 164.453 89.9256L108.071 85.4797L107.91 87.5192L164.293 91.9651C164.293 91.9651 170.779 92.4766 177.29 90.7939C180.951 89.8475 184.621 88.207 187.148 85.3908Z" fill="#A4A4A4"/>
        <path fill-rule="evenodd" clip-rule="evenodd" d="M95.3056 108.112C95.4468 106.321 97.0248 104.984 98.83 105.127C99.6391 105.19 100.356 105.54 100.889 106.069C101.545 106.719 101.921 107.639 101.843 108.628C101.702 110.419 100.124 111.756 98.3184 111.614C97.0415 111.513 95.9929 110.699 95.5385 109.598C95.3505 109.142 95.2642 108.637 95.3056 108.112Z" fill="#656565"/>
        <path fill-rule="evenodd" clip-rule="evenodd" d="M97.9761 115.956C105.62 116.559 106.218 108.973 106.218 108.973L107.186 96.7009L107.91 87.5192L108.071 85.4797L108.727 77.155C108.896 75.0151 108.229 72.9646 106.997 71.4671C105.958 70.2039 104.305 69.1742 101.681 68.9673C100.974 68.9115 100.327 68.9259 99.7346 68.9979C93.9606 69.7002 93.5752 74.3172 93.4409 75.9253C93.4402 75.9334 93.4395 75.9415 93.4389 75.9495C93.3064 77.5349 91.8976 95.4953 91.8976 95.4953L90.93 107.767C90.93 107.767 90.8768 108.441 91.0045 109.403C91.1181 110.258 91.3748 111.342 91.9393 112.382C92.8697 114.096 94.6361 115.693 97.9761 115.956ZM95.3056 108.112C95.4468 106.321 97.0248 104.984 98.83 105.127C99.6391 105.19 100.356 105.54 100.889 106.069C101.545 106.719 101.921 107.639 101.843 108.628C101.702 110.419 100.124 111.756 98.3184 111.614C97.0415 111.513 95.9929 110.699 95.5385 109.598C95.3505 109.142 95.2642 108.637 95.3056 108.112Z" fill="#6590FF"/>
        <path d="M14.1724 45.2412L12.8858 61.5573C12.6273 64.8358 13.4221 67.5336 14.8572 69.7531C14.9719 69.9305 15.0908 70.1048 15.2134 70.2762C19.9438 76.8825 30.4438 79.014 34.6285 79.6165C35.735 79.7759 36.3999 79.8283 36.3999 79.8283L83.4082 83.535L91.9819 84.2111L92.7181 74.8753C93.1835 68.9722 98.59 67.8704 101.235 68.0574C104.05 68.2227 109.272 70.2469 108.727 77.155L108.071 85.4797L164.453 89.9256C164.453 89.9256 170.94 90.4371 177.45 88.7545C181.112 87.808 184.782 86.1675 187.309 83.3514C189.074 81.3842 190.282 78.8443 190.54 75.5659L191.827 59.2498C191.827 59.2498 191.678 61.0104 192.389 52.0395L192.391 52.0086C192.902 45.4661 190.037 35.0398 168.967 32.6836L40.9136 22.5863C24.8078 21.3163 15.8041 24.5482 14.8369 36.8149L14.1724 45.2412Z" fill="#D9D9D9"/>
        <path d="M14.8369 36.8149C15.8041 24.5482 15.8502 23.9639 14.9166 22.0242C13.8393 21.9393 10.5514 24.9153 8.88603 31.4812C10.3124 27.893 14.7266 29.3104 14.8369 36.8149Z" fill="#A4A4A4"/>
        <path d="M14.9166 22.0242C14.9166 22.0242 13.8264 19.8464 12.7717 18.6469C10.6452 19.9968 9.19722 21.91 8.98718 24.5737L8.01687 36.879C8.17572 34.865 8.48348 33.0682 8.88603 31.4812C10.5514 24.9153 13.8393 21.9393 14.9166 22.0242Z" fill="#656565"/>
        <path fill-rule="evenodd" clip-rule="evenodd" d="M93.4389 75.9495C93.3064 77.5349 91.8976 95.4953 91.8976 95.4953L90.93 107.767C90.93 107.767 90.8768 108.441 91.0045 109.403C91.1181 110.258 91.3748 111.342 91.9393 112.382C90.8532 111.062 90.4374 109.486 90.2837 108.328C90.156 107.367 90.2091 106.693 90.2091 106.693L91.0971 95.4322L91.8211 86.2505L91.9819 84.2111L92.7181 74.8753L93.4409 75.9253L93.4389 75.9495Z" fill="#4A70D0"/>
        <path d="M99.7346 68.9979C100.327 68.9259 100.974 68.9115 101.681 68.9673C104.305 69.1742 105.958 70.2039 106.997 71.4671C108.229 72.9646 108.896 75.0151 108.727 77.155C109.272 70.2469 104.05 68.2227 101.235 68.0574C98.59 67.8704 93.1835 68.9722 92.7181 74.8753L93.4409 75.9253C93.5752 74.3172 93.9606 69.7002 99.7346 68.9979Z" fill="#6590FF"/>
        <path d="M8.01687 36.879L6.57156 55.2084L5.93907 63.2305L2.75895 103.561C2.41723 107.894 2.47031 112.455 3.64509 116.509C5.16818 119.653 9.63325 126.496 15.3088 128.71C14.356 127.432 13.6199 126.026 13.0602 124.533C11.408 120.127 11.2925 114.961 11.6771 110.083L14.6964 71.7926L14.8572 69.7531C13.4221 67.5336 12.6273 64.8358 12.8858 61.5573L14.1724 45.2412L14.8369 36.8149C14.7266 29.3104 10.3124 27.893 8.88603 31.4812C8.48348 33.0682 8.17572 34.865 8.01687 36.879Z" fill="#D9D9D9"/>
        <path d="M31.8861 137.072C26.3657 136.637 21.4076 134.445 17.5255 131.093C16.6815 130.364 15.9466 129.566 15.3088 128.71C9.63325 126.496 5.16818 119.653 3.64509 116.509C4.04518 117.889 4.57537 119.211 5.26437 120.445C7.44033 125.459 15.811 135.804 31.8861 137.072Z" fill="#A4A4A4"/>
        <path fill-rule="evenodd" clip-rule="evenodd" d="M31.8861 137.072L159.94 147.169C165.46 147.605 170.7 146.217 175.06 143.515C181.603 139.459 183.527 131.318 184.129 123.681L187.148 85.3908C184.621 88.207 180.951 89.8475 177.29 90.7939C170.779 92.4766 164.293 91.9651 164.293 91.9651L107.91 87.5192L107.186 96.7009L106.218 108.973C106.218 108.973 106.073 110.815 105.963 112.217C105.693 115.643 102.933 119.772 97.7077 119.36C90.4085 118.784 88.9299 112.763 89.0859 110.783L91.0254 86.1878L83.2474 85.5745L36.2391 81.8678C36.2391 81.8678 35.5742 81.8153 34.4677 81.656C30.283 81.0534 19.783 78.9219 15.0526 72.3157C14.9299 72.1443 14.8111 71.97 14.6964 71.7926L11.6771 110.083C11.2925 114.961 11.408 120.127 13.0602 124.533C13.6199 126.026 14.356 127.432 15.3088 128.71C15.9466 129.566 16.6815 130.364 17.5255 131.093C21.4076 134.445 26.3657 136.637 31.8861 137.072Z" fill="#D9D9D9"/>
        <path d="M106.218 108.973C106.218 108.973 105.62 116.559 97.9761 115.956C94.6361 115.693 92.8697 114.096 91.9393 112.382C90.8532 111.062 90.4374 109.486 90.2837 108.328C90.156 107.367 90.2091 106.693 90.2091 106.693L91.0971 95.4322L91.8211 86.2505L91.9819 84.2111L83.4082 83.535L36.3999 79.8283C36.3999 79.8283 35.735 79.7759 34.6285 79.6165C30.4438 79.014 19.9438 76.8825 15.2134 70.2762C15.0908 70.1048 14.9719 69.9305 14.8572 69.7531L14.6964 71.7926C14.8111 71.97 14.9299 72.1443 15.0526 72.3157C19.783 78.9219 30.283 81.0534 34.4677 81.656C35.5742 81.8153 36.2391 81.8678 36.2391 81.8678L83.2474 85.5745L91.0254 86.1878L89.0859 110.783C88.9299 112.763 90.4085 118.784 97.7077 119.36C102.933 119.772 105.693 115.643 105.963 112.217C106.073 110.815 106.218 108.973 106.218 108.973Z" fill="#A4A4A4"/>
        <path fill-rule="evenodd" clip-rule="evenodd" d="M81.7596 23.9885C75.2436 23.4747 75.0525 22.7029 75.3326 22.3467C75.3326 22.3467 75.4229 21.2018 75.9786 19.5318C76.9951 16.4773 79.5689 11.6663 85.9955 8.89116C85.692 12.7674 88.0705 14.3677 89.8351 15.0185C84.9865 16.2 83.4903 21.5085 83.4554 22.3814C83.4275 23.0797 82.3133 23.7437 81.7596 23.9885Z" fill="#D9D9D9"/>
        <path fill-rule="evenodd" clip-rule="evenodd" d="M112.277 16.7881C113.79 17.4975 116.972 20.1477 117.588 25.0728C117.769 25.6295 118.37 26.752 119.356 26.9158C119.386 26.9199 119.416 26.924 119.446 26.928C119.833 26.9791 120.264 27.0247 120.746 27.0626C125.362 27.4267 125.614 26.6899 125.451 26.2987C125.451 26.2987 125.542 25.1538 125.254 23.4173C124.729 20.2412 122.941 15.0863 117.029 11.3382C116.721 15.2141 114.121 16.4218 112.277 16.7881Z" fill="#D9D9D9"/>
        <path d="M81.7596 23.9885C84.7862 24.2272 84.8187 23.1386 84.8187 23.1386C84.8187 23.1386 84.8445 22.7188 85.0232 22.0635C85.1553 21.5795 85.3708 20.9668 85.721 20.3C86.5939 18.6377 88.3037 16.6383 91.644 15.4518C91.644 15.4518 90.8388 15.3887 89.8351 15.0185C84.9865 16.2 83.4903 21.5085 83.4554 22.3814C83.4275 23.0797 82.3133 23.7437 81.7596 23.9885Z" fill="#A4A4A4"/>
        <path d="M115.609 22.6567C116.222 24.3397 116.144 25.6086 116.144 25.6086C116.144 25.6086 116.076 26.4659 119.356 26.9158C118.37 26.752 117.769 25.6295 117.588 25.0728C116.972 20.1477 113.79 17.4975 112.277 16.7881C111.227 16.9964 110.422 16.9325 110.422 16.9325C113.535 18.6278 114.96 20.8744 115.609 22.6567Z" fill="#A4A4A4"/>
        <path d="M8.01687 36.879C7.55609 42.7237 7.03251 49.3637 6.57156 55.2084M8.01687 36.879C7.51443 43.2509 6.57156 55.2084 6.57156 55.2084M8.01687 36.879L6.57156 55.2084M8.01687 36.879L8.98718 24.5737C9.19722 21.91 10.6452 19.9968 12.7717 18.6469M8.01687 36.879C8.17572 34.865 8.48348 33.0682 8.88603 31.4812M6.57156 55.2084C6.31304 58.4868 5.93907 63.2305 5.93907 63.2305M6.57156 55.2084L5.93907 63.2305M5.93907 63.2305L2.75895 103.561C2.41723 107.894 2.47031 112.455 3.64509 116.509M79.9652 83.3204L83.4038 83.5916L83.4082 83.535M14.1724 45.2412C14.1724 45.2412 13.3468 55.7127 12.8858 61.5573M14.1724 45.2412L12.8858 61.5573M14.1724 45.2412L14.8369 36.8149M31.8861 137.072C81.8941 141.015 109.932 143.226 159.94 147.169M31.8861 137.072C26.3657 136.637 21.4076 134.445 17.5255 131.093C16.6815 130.364 15.9466 129.566 15.3088 128.71M31.8861 137.072C15.811 135.804 7.44033 125.459 5.26437 120.445C4.57537 119.211 4.04518 117.889 3.64509 116.509M31.8861 137.072L159.94 147.169M159.94 147.169C165.46 147.605 170.7 146.217 175.06 143.515C181.603 139.459 183.527 131.318 184.129 123.681M191.827 59.2498C191.827 59.2498 190.981 69.9839 190.54 75.5659M191.827 59.2498L190.54 75.5659M191.827 59.2498C191.827 59.2498 191.678 61.0104 192.389 52.0395M191.827 59.2498L192.389 52.0395M12.8858 61.5573C12.6273 64.8358 13.4221 67.5336 14.8572 69.7531M190.54 75.5659C190.282 78.8443 189.074 81.3842 187.309 83.3514M14.8572 69.7531C14.9719 69.9305 15.0908 70.1048 15.2134 70.2762C19.9438 76.8825 30.4438 79.014 34.6285 79.6165C35.735 79.7759 36.3999 79.8283 36.3999 79.8283L83.4082 83.535M14.8572 69.7531L11.6771 110.083M14.8572 69.7531L14.6964 71.7926M187.309 83.3514L184.129 123.681M187.309 83.3514C184.782 86.1675 181.112 87.808 177.45 88.7545C170.94 90.4371 164.453 89.9256 164.453 89.9256L108.071 85.4797M187.309 83.3514L187.148 85.3908M106.218 108.973C106.218 108.973 105.62 116.559 97.9761 115.956C94.6361 115.693 92.8697 114.096 91.9393 112.382M106.218 108.973L107.186 96.7009M106.218 108.973C106.218 108.973 106.073 110.815 105.963 112.217C105.693 115.643 102.933 119.772 97.7077 119.36C90.4085 118.784 88.9299 112.763 89.0859 110.783L91.0254 86.1878L83.2474 85.5745M108.727 77.155L108.071 85.4797M108.727 77.155C108.896 75.0151 108.229 72.9646 106.997 71.4671C105.958 70.2039 104.305 69.1742 101.681 68.9673C100.974 68.9115 100.327 68.9259 99.7346 68.9979C93.9606 69.7002 93.5752 74.3172 93.4409 75.9253M108.727 77.155C109.272 70.2469 104.05 68.2227 101.235 68.0574C98.59 67.8704 93.1835 68.9722 92.7181 74.8753M93.4389 75.9495C93.3064 77.5349 91.8976 95.4953 91.8976 95.4953L90.93 107.767C90.93 107.767 90.8768 108.441 91.0045 109.403C91.1181 110.258 91.3748 111.342 91.9393 112.382M93.4389 75.9495L93.4409 75.9253M93.4389 75.9495C93.4395 75.9415 93.4402 75.9334 93.4409 75.9253M108.071 85.4797L107.186 96.7009M108.071 85.4797L107.91 87.5192M107.186 96.7009L107.91 87.5192M184.129 123.681L187.148 85.3908M11.6771 110.083L14.6964 71.7926M11.6771 110.083C11.2925 114.961 11.408 120.127 13.0602 124.533C13.6199 126.026 14.356 127.432 15.3088 128.71M15.3088 128.71C9.63325 126.496 5.16818 119.653 3.64509 116.509M83.4082 83.535L91.9819 84.2111M81.7596 23.9885C84.7862 24.2272 84.8187 23.1386 84.8187 23.1386C84.8187 23.1386 84.8445 22.7188 85.0232 22.0635C85.1553 21.5795 85.3708 20.9668 85.721 20.3M81.7596 23.9885C75.2436 23.4747 75.0525 22.7029 75.3326 22.3467C75.3326 22.3467 75.4229 21.2018 75.9786 19.5318M81.7596 23.9885C82.3133 23.7437 83.4275 23.0797 83.4554 22.3814C83.4903 21.5085 84.9865 16.2 89.8351 15.0185M91.644 15.4518L110.422 16.9325M91.644 15.4518C88.3037 16.6383 86.5939 18.6377 85.721 20.3M91.644 15.4518C91.644 15.4518 90.8388 15.3887 89.8351 15.0185M110.422 16.9325C113.535 18.6278 114.96 20.8744 115.609 22.6567M110.422 16.9325C110.422 16.9325 111.227 16.9964 112.277 16.7881M117.029 11.3382C117.029 11.3382 112.694 8.0248 101.745 7.16142C90.7959 6.29804 85.9955 8.89116 85.9955 8.89116M117.029 11.3382C122.941 15.0863 124.729 20.2412 125.254 23.4173M117.029 11.3382C116.721 15.2141 114.121 16.4218 112.277 16.7881M85.9955 8.89116C79.5689 11.6663 76.9951 16.4773 75.9786 19.5318M85.9955 8.89116C85.692 12.7674 88.0705 14.3677 89.8351 15.0185M85.721 20.3L115.609 22.6567M115.609 22.6567C116.222 24.3397 116.144 25.6086 116.144 25.6086C116.144 25.6086 116.076 26.4659 119.356 26.9158M75.9786 19.5318L31.9955 16.0636C19.459 15.075 16.3349 16.385 12.7717 18.6469M125.254 23.4173L160.049 26.1609C160.169 26.1703 160.289 26.1804 160.411 26.1911C168.568 26.8783 178.504 27.7569 183.361 28.8634M125.254 23.4173C125.542 25.1538 125.451 26.2987 125.451 26.2987C125.614 26.6899 125.362 27.4267 120.746 27.0626C120.264 27.0247 119.833 26.9791 119.446 26.928C119.416 26.924 119.386 26.9199 119.356 26.9158M14.8369 36.8149C15.8041 24.5482 15.8502 23.9639 14.9166 22.0242M14.8369 36.8149C15.8041 24.5482 24.8078 21.3163 40.9136 22.5863L168.967 32.6836C190.037 35.0398 192.902 45.4661 192.391 52.0086M14.8369 36.8149C14.7266 29.3104 10.3124 27.893 8.88603 31.4812M12.7717 18.6469C13.8264 19.8464 14.9166 22.0242 14.9166 22.0242M12.7717 18.6469C12.7374 18.608 12.8063 18.6817 12.7717 18.6469ZM14.9166 22.0242C13.8393 21.9393 10.5514 24.9153 8.88603 31.4812M192.389 52.0395C192.39 52.0292 192.39 52.0189 192.391 52.0086M192.389 52.0395L192.391 52.0086M183.361 28.8634C183.831 28.953 184.358 29.128 184.915 29.4032M183.361 28.8634C183.891 29.0226 184.41 29.2027 184.915 29.4032M184.915 29.4032C187.491 30.4254 193.688 35.5421 192.391 52.0086M79.8044 85.3599L83.243 85.631L83.2474 85.5745M14.6964 71.7926C14.8111 71.97 14.9299 72.1443 15.0526 72.3157C19.783 78.9219 30.283 81.0534 34.4677 81.656C35.5742 81.8153 36.2391 81.8678 36.2391 81.8678L83.2474 85.5745M187.148 85.3908C184.621 88.207 180.951 89.8475 177.29 90.7939C170.779 92.4766 164.293 91.9651 164.293 91.9651L107.91 87.5192M92.7181 74.8753L91.9819 84.2111M92.7181 74.8753L93.4409 75.9253M91.9819 84.2111L91.8211 86.2505L91.0971 95.4322L90.2091 106.693C90.2091 106.693 90.156 107.367 90.2837 108.328C90.4374 109.486 90.8532 111.062 91.9393 112.382M112.277 16.7881C113.79 17.4975 116.972 20.1477 117.588 25.0728C117.769 25.6295 118.37 26.752 119.356 26.9158M98.83 105.127C97.0248 104.984 95.4468 106.321 95.3056 108.112C95.2642 108.637 95.3505 109.142 95.5385 109.598C95.9929 110.699 97.0415 111.513 98.3184 111.614C100.124 111.756 101.702 110.419 101.843 108.628C101.921 107.639 101.545 106.719 100.889 106.069C100.356 105.54 99.6391 105.19 98.83 105.127Z" stroke="#373737" stroke-opacity="0.15"/>
    </g>
</svg>
