<svg width="220" height="168" viewBox="0 0 220 168" fill="none" xmlns="http://www.w3.org/2000/svg">
<g opacity="0.5">
<path d="M96.4038 98.2136C106.793 92.645 112.033 81.2241 110.236 70.2068C109.77 67.3546 108.833 64.5294 107.391 61.8398C101.731 51.2799 91.0036 45.8295 78.841 48.1025C74.1822 48.9731 70.9361 50.4933 67.7272 52.9779C66.1752 54.1796 64.7773 55.4771 63.5886 56.7176C62.5066 57.94 61.5465 59.2508 60.7143 60.6303C56.3498 67.8652 55.5027 76.9894 59.032 85.16C59.3327 85.8561 59.6652 86.5453 60.03 87.2259C61.3759 89.7369 63.0637 91.9471 65.0051 93.8299C73.1753 101.754 85.8363 103.878 96.4038 98.2136Z" fill="#C8C8C8"/>
<path fill-rule="evenodd" clip-rule="evenodd" d="M110.236 70.2068C112.033 81.2241 106.793 92.645 96.4038 98.2136C85.8363 103.878 73.1753 101.754 65.0051 93.8299C63.0637 91.9471 61.3759 89.7369 60.03 87.2259C59.6652 86.5453 59.3327 85.8561 59.032 85.16C55.5027 76.9894 56.3498 67.8652 60.7143 60.6303C61.5465 59.2508 62.5066 57.94 63.5886 56.7176C64.7773 55.4771 66.1752 54.1796 67.7272 52.9779C70.9361 50.4933 74.1822 48.9731 78.841 48.1025C91.0036 45.8295 101.731 51.2799 107.391 61.8398C108.833 64.5294 109.77 67.3546 110.236 70.2068Z" fill="#B6B6B6"/>
<path fill-rule="evenodd" clip-rule="evenodd" d="M114.603 64.4967L114.614 64.5285C115.206 66.3524 115.629 68.2036 115.887 70.0614C116.908 77.4176 115.353 84.8787 111.605 91.1747C108.688 96.0736 104.444 100.267 99.0533 103.157C85.2018 110.581 68.3745 106.935 58.7205 95.2843C57.3565 93.6383 56.1358 91.8324 55.0868 89.8754C54.491 88.7639 53.9666 87.6333 53.5118 86.4887C50.5207 78.9609 50.5445 70.8312 53.1326 63.5913C53.1516 63.5382 53.1707 63.4851 53.19 63.432C53.8004 61.752 54.5492 60.1208 55.4307 58.5569C58.5679 52.8303 68.9349 41.5198 85.3055 42.0907C96.305 42.6419 106.752 48.776 112.335 59.1902C113.261 60.9193 114.016 62.6947 114.603 64.4967ZM96.4038 98.2136C106.793 92.645 112.033 81.2241 110.236 70.2068C109.77 67.3546 108.833 64.5294 107.391 61.8398C101.731 51.2799 91.0036 45.8295 78.841 48.1025C74.1822 48.9731 70.9361 50.4933 67.7272 52.9779C66.1752 54.1796 64.7773 55.4771 63.5886 56.7176C62.5066 57.94 61.5465 59.2508 60.7143 60.6303C56.3498 67.8652 55.5027 76.9894 59.032 85.16C59.3327 85.8561 59.6652 86.5453 60.03 87.2259C61.3759 89.7369 63.0637 91.9471 65.0051 93.8299C73.1753 101.754 85.8363 103.878 96.4038 98.2136Z" fill="#6590FF"/>
<path fill-rule="evenodd" clip-rule="evenodd" d="M142.808 72.8645C142.81 72.86 142.813 72.8554 142.815 72.8509L142.818 72.8438C142.815 72.8508 142.812 72.8576 142.808 72.8645Z" fill="#C8C8C8"/>
<path fill-rule="evenodd" clip-rule="evenodd" d="M145.404 159.19L166.383 141.757C168.733 139.804 169.64 136.621 169.593 133.565C169.591 133.408 169.59 133.249 169.592 133.088C169.604 131.56 169.789 129.855 170.315 128.165C170.965 126.082 172.134 124.024 174.138 122.358C177.938 119.201 182.577 119.253 185.987 119.942C188.983 120.548 192.278 120.239 194.628 118.286L215.607 100.853C216.52 100.095 217.212 99.1693 217.676 98.1584C218.351 96.6894 218.544 95.0397 218.233 93.4589C217.994 92.2408 217.454 91.0636 216.605 90.0416L185.617 52.7502L181.338 47.9679L178.101 49.0682C176.106 49.3213 173.722 49.0936 172.134 47.1828L168.308 50.3621C167.571 50.9748 167.567 52.4149 166.83 53.0276L164.303 55.1268C163.566 55.7395 162.15 55.4798 161.412 56.0925L160.373 56.9561C159.636 57.5688 159.632 59.0089 158.894 59.6216L156.368 61.7208C155.631 62.3335 154.214 62.0738 153.477 62.6865L152.356 63.6178C151.619 64.2305 151.615 65.6706 150.878 66.2833L148.907 67.9212L148.824 67.99L148.818 67.9942L148.643 68.1403L148.352 68.3825C147.983 68.6888 147.444 68.7771 146.906 68.8653C146.368 68.9536 145.829 69.0418 145.46 69.3482L143.579 70.9112C143.244 71.1899 143.136 71.6584 143.03 72.1201C142.977 72.3524 142.924 72.5829 142.843 72.7866L142.832 72.8131L142.82 72.8388L142.818 72.8438L142.815 72.8509L142.808 72.8645C142.806 72.8689 142.804 72.8734 142.802 72.8778C142.735 73.0078 142.642 73.1267 142.523 73.2258L139.997 75.325C139.628 75.6314 139.09 75.7196 138.551 75.8079C138.013 75.8962 137.474 75.9844 137.106 76.2908L135.429 77.6838C135.061 77.9901 134.875 78.5033 134.69 79.0165C134.505 79.5297 134.319 80.0429 133.951 80.3492L131.424 82.4484C131.056 82.7548 130.517 82.843 129.979 82.9313C129.44 83.0195 128.902 83.1078 128.533 83.4142L127.45 84.314C127.082 84.6203 126.896 85.1335 126.711 85.6467C126.526 86.1599 126.34 86.6731 125.972 86.9795L123.445 89.0787C123.077 89.385 122.538 89.4733 122 89.5615C121.461 89.6498 120.923 89.738 120.554 90.0444L118.482 91.7662C118.114 92.0725 117.928 92.5857 117.743 93.0989C117.558 93.6121 117.372 94.1253 117.004 94.4316L114.477 96.5308C114.109 96.8372 113.57 96.9254 113.032 97.0137C112.493 97.102 111.955 97.1902 111.586 97.4965L109.91 98.8896C109.541 99.1959 109.356 99.7091 109.171 100.222C108.985 100.735 108.8 101.249 108.431 101.555L105.905 103.654C105.536 103.961 104.998 104.049 104.46 104.137C103.921 104.225 103.383 104.314 103.014 104.62L100.599 106.626C101.179 107.324 101.519 108.085 101.687 108.863C101.947 110.069 101.794 111.316 101.482 112.433C101.234 113.321 100.885 114.127 100.563 114.765C100.499 114.89 100.446 115.02 100.402 115.152C100.243 115.635 100.219 116.154 100.343 116.633C100.456 116.943 100.604 117.238 100.79 117.514L134.593 158.192C137.302 161.453 142.143 161.9 145.404 159.19ZM175.01 114.863L153.054 88.4409L154.647 87.1169L176.604 113.539L175.01 114.863ZM189.483 102.837L188.421 103.72L166.389 77.437L167.405 76.5994L189.483 102.837ZM171.757 117.567L149.801 91.1441L148.739 92.0268L170.695 118.449L171.757 117.567ZM187.226 104.713L184.371 107.085L162.392 80.7325L165.269 78.3608L187.226 104.713ZM157.285 129.593L135.328 103.17L132.474 105.543L154.43 131.965L157.285 129.593ZM160.604 126.835L138.648 100.412L137.585 101.295L159.542 127.717L160.604 126.835ZM162.396 125.345L140.44 98.9226L142.033 97.5986L163.99 124.021L162.396 125.345ZM150.911 134.889L128.955 108.466L126.1 110.839L148.057 137.261L150.911 134.889ZM152.903 133.234L130.947 106.811L129.884 107.694L151.841 134.117L152.903 133.234ZM143.579 140.982L121.623 114.559L120.56 115.442L142.517 141.865L143.579 140.982ZM191.474 101.182L190.412 102.065L168.328 75.8389L169.541 74.8388L191.474 101.182ZM194.852 98.3757L193.466 99.527L171.649 73.1011L173.231 71.7968L194.852 98.3757Z" fill="#B6B6B6"/>
<path d="M145.24 165.227L166.219 147.794C168.569 145.841 169.476 142.658 169.429 139.602C169.427 139.445 169.426 139.286 169.428 139.125C169.44 137.598 169.625 135.892 170.151 134.203C170.801 132.119 171.97 130.061 173.974 128.396C177.774 125.238 182.413 125.291 185.823 125.98C188.819 126.585 192.114 126.277 194.464 124.323L215.443 106.891C216.657 105.882 217.452 104.499 217.951 102.979C219.05 99.6291 218.708 95.6123 218.233 93.4589C218.544 95.0397 218.351 96.6894 217.676 98.1584C217.212 99.1693 216.52 100.095 215.607 100.853L194.628 118.286C192.278 120.239 188.983 120.548 185.987 119.942C182.577 119.253 177.938 119.201 174.138 122.358C172.134 124.024 170.965 126.082 170.315 128.165C169.789 129.855 169.604 131.56 169.592 133.088C169.59 133.249 169.591 133.408 169.593 133.565C169.64 136.621 168.733 139.804 166.383 141.757L145.404 159.19C142.143 161.9 137.302 161.453 134.593 158.192L100.79 117.514C100.604 117.238 100.456 116.943 100.343 116.633C100.219 116.154 100.243 115.635 100.402 115.152C99.5954 117.212 98.7019 121.235 100.626 123.551L102.01 125.216L104.466 128.172L134.429 164.229C137.138 167.49 141.979 167.937 145.24 165.227Z" fill="#D9D9D9"/>
<path d="M193.466 99.527L194.852 98.3757L173.231 71.7968L171.649 73.1011L193.466 99.527Z" fill="#8C8C8C"/>
<path d="M190.412 102.065L191.474 101.182L169.541 74.8388L168.328 75.8389L190.412 102.065Z" fill="#8C8C8C"/>
<path d="M188.421 103.72L189.483 102.837L167.405 76.5994L166.389 77.437L188.421 103.72Z" fill="#8C8C8C"/>
<path d="M184.371 107.085L187.226 104.713L165.269 78.3608L162.392 80.7325L184.371 107.085Z" fill="#8C8C8C"/>
<path d="M153.054 88.4409L175.01 114.863L176.604 113.539L154.647 87.1169L153.054 88.4409Z" fill="#8C8C8C"/>
<path d="M149.801 91.1441L171.757 117.567L170.695 118.449L148.739 92.0268L149.801 91.1441Z" fill="#8C8C8C"/>
<path d="M140.44 98.9226L162.396 125.345L163.99 124.021L142.033 97.5986L140.44 98.9226Z" fill="#8C8C8C"/>
<path d="M138.648 100.412L160.604 126.835L159.542 127.717L137.585 101.295L138.648 100.412Z" fill="#8C8C8C"/>
<path d="M135.328 103.17L157.285 129.593L154.43 131.965L132.474 105.543L135.328 103.17Z" fill="#8C8C8C"/>
<path d="M130.947 106.811L152.903 133.234L151.841 134.117L129.884 107.694L130.947 106.811Z" fill="#8C8C8C"/>
<path d="M128.955 108.466L150.911 134.889L148.057 137.261L126.1 110.839L128.955 108.466Z" fill="#8C8C8C"/>
<path d="M121.623 114.559L143.579 140.982L142.517 141.865L120.56 115.442L121.623 114.559Z" fill="#8C8C8C"/>
<path fill-rule="evenodd" clip-rule="evenodd" d="M148.907 67.9212L148.824 67.99L148.818 67.9942C148.849 67.9733 148.881 67.9538 148.914 67.9358L148.907 67.9212Z" fill="#B6B6B6"/>
<path fill-rule="evenodd" clip-rule="evenodd" d="M5.44927 64.7001L18.3324 88.7355C19.0457 90.0662 20.1234 91.1116 21.3935 91.8971C22.4184 92.531 24.2771 93.221 26.0715 93.5903C29.4289 94.2813 33.534 96.006 35.7916 100.218C38.1272 104.575 37.1512 109.106 35.7947 112.307C34.6011 115.124 34.2423 118.418 35.6877 121.114L48.5708 145.15C49.0677 146.077 49.7277 146.86 50.4963 147.484C52.8262 149.374 56.1544 149.796 58.9645 148.289L102.01 125.216L100.626 123.551C98.7019 121.235 99.5954 117.212 100.402 115.152C100.446 115.02 100.499 114.89 100.563 114.765C100.885 114.127 101.234 113.321 101.482 112.433C101.794 111.316 101.947 110.069 101.687 108.863C101.519 108.085 101.179 107.324 100.599 106.626L103.014 104.62C103.383 104.314 103.921 104.225 104.46 104.137C104.998 104.049 105.536 103.961 105.905 103.654L108.431 101.555C108.8 101.249 108.985 100.735 109.171 100.222C109.356 99.7091 109.541 99.1959 109.91 98.8896L111.586 97.4965C111.955 97.1902 112.493 97.102 113.032 97.0137C113.57 96.9254 114.109 96.8372 114.477 96.5308L117.004 94.4316C117.372 94.1253 117.558 93.6121 117.743 93.0989C117.928 92.5857 118.114 92.0725 118.482 91.7662L120.554 90.0444C120.923 89.738 121.461 89.6498 122 89.5615C122.538 89.4733 123.077 89.385 123.445 89.0787L125.972 86.9795C126.34 86.6731 126.526 86.1599 126.711 85.6467C126.896 85.1335 127.082 84.6203 127.45 84.314L128.533 83.4142C128.902 83.1078 129.44 83.0195 129.979 82.9313C130.517 82.843 131.056 82.7548 131.424 82.4484L133.951 80.3492C134.319 80.0429 134.505 79.5297 134.69 79.0165C134.875 78.5033 135.061 77.9901 135.429 77.6838L137.106 76.2908C137.474 75.9844 138.013 75.8962 138.551 75.8079C139.09 75.7196 139.628 75.6314 139.997 75.325L142.523 73.2258C142.642 73.1267 142.735 73.0078 142.802 72.8778C142.804 72.8734 142.806 72.8689 142.808 72.8645L142.815 72.8509L142.818 72.8438L142.82 72.8388L142.832 72.8131L142.843 72.7866C142.924 72.5829 142.977 72.3524 143.03 72.1201C143.136 71.6584 143.244 71.1899 143.579 70.9112L145.46 69.3482C145.829 69.0418 146.368 68.9536 146.906 68.8653C147.444 68.7771 147.983 68.6888 148.352 68.3825L148.643 68.1403C148.695 68.0865 148.753 68.0374 148.818 67.9942L148.824 67.99L148.907 67.9212L146.002 62.5015C145.464 62.7899 144.794 62.5875 144.506 62.0497L142.954 59.1548C142.666 58.6169 142.868 57.9471 143.406 57.6588L141.101 53.3581C140.563 53.6464 139.893 53.444 139.605 52.9061L138.053 50.0112C137.765 49.4734 137.967 48.8036 138.505 48.5153L135.835 43.5345C135.297 43.8228 134.628 43.6205 134.339 43.0826L132.788 40.1877C132.499 39.6498 132.702 38.9801 133.239 38.6917L130.703 33.9603C130.165 34.2486 129.496 34.0463 129.207 33.5084L127.656 30.6135C127.367 30.0756 127.57 29.4059 128.108 29.1175L125.779 24.7734C125.241 25.0617 124.571 24.8594 124.283 24.3215L122.731 21.4266C122.443 20.8887 122.645 20.219 123.183 19.9307L120.905 15.68C120.367 15.9683 119.697 15.766 119.409 15.2281L117.857 12.3332C117.569 11.7953 117.771 11.1255 118.309 10.8372L115.139 4.92286C113.33 5.8111 109.124 6.52759 106.778 2.28765C106.325 1.79171 105.173 0.93753 104.19 1.48838L39.381 37.8017L17.3758 49.5966C9.60713 53.7607 7.26697 55.1839 7.06798 55.375C5.46517 56.8207 4.56773 58.865 4.53778 60.9709C4.51987 62.2302 4.81215 63.5115 5.44927 64.7001ZM114.614 64.5285L114.603 64.4967C114.016 62.6947 113.261 60.9193 112.335 59.1902C106.752 48.776 96.305 42.6419 85.3055 42.0907C68.9349 41.5198 58.5679 52.8303 55.4307 58.5569C54.5492 60.1208 53.8004 61.752 53.19 63.432C53.1707 63.4851 53.1516 63.5382 53.1326 63.5913C50.5445 70.8312 50.5207 78.9609 53.5118 86.4887C53.9666 87.6333 54.491 88.7639 55.0868 89.8754C56.1358 91.8324 57.3565 93.6383 58.7205 95.2843C68.3745 106.935 85.2018 110.581 99.0533 103.157C104.444 100.267 108.688 96.0736 111.605 91.1747C115.353 84.8787 116.908 77.4176 115.887 70.0614C115.629 68.2036 115.206 66.3524 114.614 64.5285Z" fill="#B6B6B6"/>
<path d="M2.76096 70.4128L15.6441 94.4482C16.3574 95.7789 17.4351 96.8243 18.7052 97.6098C19.7301 98.2437 21.5888 98.9337 23.3832 99.303C26.7406 99.994 30.8457 101.719 33.1033 105.931C35.4389 110.288 34.4628 114.818 33.1064 118.02C31.9128 120.837 31.554 124.13 32.9994 126.827L45.8825 150.862C46.3794 151.789 47.0394 152.573 47.8079 153.196C50.1379 155.087 53.4661 155.508 56.2762 154.002L104.466 128.172L102.01 125.216L58.9645 148.289C56.1544 149.796 52.8262 149.374 50.4963 147.484C49.7277 146.86 49.0677 146.077 48.5708 145.15L35.6877 121.114C34.2423 118.418 34.6011 115.124 35.7947 112.307C37.1512 109.106 38.1272 104.575 35.7916 100.218C33.534 96.006 29.4289 94.2813 26.0715 93.5903C24.2771 93.221 22.4184 92.531 21.3935 91.8971C20.1234 91.1116 19.0457 90.0662 18.3324 88.7355L5.44927 64.7001C4.81215 63.5115 4.51987 62.2302 4.53778 60.9709C4.56773 58.865 5.46517 56.8207 7.06798 55.375C3.97295 57.2918 -1.22149 62.983 2.76096 70.4128Z" fill="#D9D9D9"/>
<path d="M52.7424 64.2696C52.862 64.0513 52.9921 63.8249 53.1326 63.5913M115.139 4.92286C114.609 5.20679 114.073 5.38193 113.541 5.47036M115.139 4.92286L118.309 10.8372C117.771 11.1255 117.569 11.7953 117.857 12.3332L119.409 15.2281C119.697 15.766 120.367 15.9683 120.905 15.68L123.183 19.9307C122.645 20.219 122.443 20.8887 122.731 21.4266L124.283 24.3215C124.571 24.8594 125.241 25.0617 125.779 24.7734L128.108 29.1175C127.57 29.4059 127.367 30.0756 127.656 30.6135L129.207 33.5084C129.496 34.0463 130.165 34.2486 130.703 33.9603L133.239 38.6917C132.702 38.9801 132.499 39.6498 132.788 40.1877L134.339 43.0826C134.628 43.6205 135.297 43.8228 135.835 43.5345L138.505 48.5153C137.967 48.8036 137.765 49.4734 138.053 50.0112L139.605 52.9061C139.893 53.444 140.563 53.6464 141.101 53.3581L143.406 57.6588C142.868 57.9471 142.666 58.6169 142.954 59.1548L144.506 62.0497C144.794 62.5875 145.464 62.7899 146.002 62.5015L148.907 67.9212M115.139 4.92286C113.33 5.8111 109.124 6.52759 106.778 2.28765C106.325 1.79171 105.173 0.93753 104.19 1.48838L39.381 37.8017L17.3758 49.5966C9.60713 53.7607 7.26697 55.1839 7.06798 55.375M148.914 67.9358C148.881 67.9538 148.849 67.9733 148.818 67.9942M148.914 67.9358L148.907 67.9212M148.914 67.9358C148.883 67.9526 148.853 67.9707 148.824 67.99M114.603 64.4967C114.607 64.5073 114.61 64.5179 114.614 64.5285M114.603 64.4967C114.016 62.6947 113.261 60.9193 112.335 59.1902C106.752 48.776 96.305 42.6419 85.3055 42.0907C68.9349 41.5198 58.5679 52.8303 55.4307 58.5569C54.5492 60.1208 53.8004 61.752 53.19 63.432C53.1707 63.4851 53.1516 63.5382 53.1326 63.5913M114.603 64.4967L114.614 64.5285M114.603 64.4967C115.202 66.331 115.627 68.1928 115.887 70.0614M114.614 64.5285C115.206 66.3524 115.629 68.2036 115.887 70.0614M7.06798 55.375C5.46517 56.8207 4.56773 58.865 4.53778 60.9709C4.51987 62.2302 4.81215 63.5115 5.44927 64.7001L18.3324 88.7355C19.0457 90.0662 20.1234 91.1116 21.3935 91.8971C22.4184 92.531 24.2771 93.221 26.0715 93.5903C29.4289 94.2813 33.534 96.006 35.7916 100.218C38.1272 104.575 37.1512 109.106 35.7947 112.307C34.6011 115.124 34.2423 118.418 35.6877 121.114L48.5708 145.15C49.0677 146.077 49.7277 146.86 50.4963 147.484C52.8262 149.374 56.1544 149.796 58.9645 148.289L102.01 125.216M7.06798 55.375C3.97295 57.2918 -1.22149 62.983 2.76096 70.4128L15.6441 94.4482C16.3574 95.7789 17.4351 96.8243 18.7052 97.6098C19.7301 98.2437 21.5888 98.9337 23.3832 99.303C26.7406 99.994 30.8457 101.719 33.1033 105.931C35.4389 110.288 34.4628 114.818 33.1064 118.02C31.9128 120.837 31.554 124.13 32.9994 126.827L45.8825 150.862C46.3794 151.789 47.0394 152.573 47.8079 153.196C50.1379 155.087 53.4661 155.508 56.2762 154.002L104.466 128.172M115.887 70.0614C116.908 77.4176 115.353 84.8787 111.605 91.1747C108.688 96.0736 104.444 100.267 99.0533 103.157C85.2018 110.581 68.3745 106.935 58.7205 95.2843C57.3565 93.6383 56.1358 91.8324 55.0868 89.8754C54.491 88.7639 53.9666 87.6333 53.5118 86.4887C50.5207 78.9609 50.5445 70.8312 53.1326 63.5913M215.443 106.891L194.464 124.323C192.114 126.277 188.819 126.585 185.823 125.98C182.413 125.291 177.774 125.238 173.974 128.396C171.97 130.061 170.801 132.119 170.151 134.203C169.625 135.892 169.44 137.598 169.428 139.125C169.426 139.286 169.427 139.445 169.429 139.602C169.476 142.658 168.569 145.841 166.219 147.794L145.24 165.227C141.979 167.937 137.138 167.49 134.429 164.229L104.466 128.172M215.443 106.891C216.657 105.882 217.452 104.499 217.951 102.979M215.443 106.891C216.712 105.836 217.554 104.46 217.951 102.979M142.523 73.2258L139.997 75.325C139.628 75.6314 139.09 75.7196 138.551 75.8079C138.013 75.8962 137.474 75.9844 137.106 76.2908L135.429 77.6838C135.061 77.9901 134.875 78.5033 134.69 79.0165C134.505 79.5297 134.319 80.0429 133.951 80.3492L131.424 82.4484C131.056 82.7548 130.517 82.843 129.979 82.9313C129.44 83.0195 128.902 83.1078 128.533 83.4142L127.45 84.314C127.082 84.6203 126.896 85.1335 126.711 85.6467C126.526 86.1599 126.34 86.6731 125.972 86.9795L123.445 89.0787C123.077 89.385 122.538 89.4733 122 89.5615C121.461 89.6498 120.923 89.738 120.554 90.0444L118.482 91.7662C118.114 92.0725 117.928 92.5857 117.743 93.0989C117.558 93.6121 117.372 94.1253 117.004 94.4316L114.477 96.5308C114.109 96.8372 113.57 96.9254 113.032 97.0137C112.493 97.102 111.955 97.1902 111.586 97.4965L109.91 98.8896C109.541 99.1959 109.356 99.7091 109.171 100.222C108.985 100.735 108.8 101.249 108.431 101.555L105.905 103.654C105.536 103.961 104.998 104.049 104.46 104.137C103.921 104.225 103.383 104.314 103.014 104.62L100.599 106.626C101.179 107.324 101.519 108.085 101.687 108.863C101.947 110.069 101.794 111.316 101.482 112.433C101.234 113.321 100.885 114.127 100.563 114.765M142.523 73.2258C142.642 73.1267 142.735 73.0078 142.802 72.8778M142.523 73.2258C142.646 73.1233 142.742 72.9997 142.808 72.8645M100.563 114.765C100.51 114.885 100.456 115.014 100.402 115.152M100.563 114.765C100.499 114.89 100.446 115.02 100.402 115.152M218.233 93.4589C217.994 92.2408 217.454 91.0636 216.605 90.0416L185.617 52.7502L181.338 47.9679L178.101 49.0682C176.106 49.3213 173.722 49.0936 172.134 47.1828L168.308 50.3621C167.571 50.9748 167.567 52.4149 166.83 53.0276L164.303 55.1268C163.566 55.7395 162.15 55.4798 161.412 56.0925L160.373 56.9561C159.636 57.5688 159.632 59.0089 158.894 59.6216L156.368 61.7208C155.631 62.3335 154.214 62.0738 153.477 62.6865L152.356 63.6178C151.619 64.2305 151.615 65.6706 150.878 66.2833L148.907 67.9212M218.233 93.4589C218.544 95.0397 218.351 96.6894 217.676 98.1584C217.212 99.1693 216.52 100.095 215.607 100.853L194.628 118.286C192.278 120.239 188.983 120.548 185.987 119.942C182.577 119.253 177.938 119.201 174.138 122.358C172.134 124.024 170.965 126.082 170.315 128.165C169.789 129.855 169.604 131.56 169.592 133.088C169.59 133.249 169.591 133.408 169.593 133.565C169.64 136.621 168.733 139.804 166.383 141.757L145.404 159.19C142.143 161.9 137.302 161.453 134.593 158.192L100.79 117.514C100.604 117.238 100.456 116.943 100.343 116.633C100.219 116.154 100.243 115.635 100.402 115.152M218.233 93.4589C218.708 95.6123 219.05 99.6291 217.951 102.979M142.802 72.8778C142.804 72.8734 142.806 72.8689 142.808 72.8645M142.802 72.8778L142.808 72.8645M142.843 72.7866C142.839 72.7955 142.836 72.8043 142.832 72.8131M142.843 72.7866L142.832 72.8131M142.843 72.7866C142.924 72.5829 142.977 72.3524 143.03 72.1201C143.136 71.6584 143.244 71.1899 143.579 70.9112L145.46 69.3482C145.829 69.0418 146.368 68.9536 146.906 68.8653C147.444 68.7771 147.983 68.6888 148.352 68.3825L148.643 68.1403M142.808 72.8645C142.81 72.86 142.813 72.8554 142.815 72.8509M142.808 72.8645L142.815 72.8509M142.808 72.8645C142.812 72.8576 142.815 72.8508 142.818 72.8438M142.815 72.8509L142.818 72.8438M142.832 72.8131C142.828 72.8217 142.824 72.8303 142.82 72.8388M142.832 72.8131L142.82 72.8388M142.82 72.8388L142.818 72.8438M100.402 115.152C99.5954 117.212 98.7019 121.235 100.626 123.551L102.01 125.216M148.907 67.9212L148.824 67.99M148.824 67.99L148.818 67.9942M148.818 67.9942L148.643 68.1403M148.818 67.9942C148.753 68.0374 148.695 68.0865 148.643 68.1403M102.01 125.216L104.466 128.172M111.915 70.2094C111.918 70.22 111.922 70.2306 111.925 70.2411L111.915 70.2094ZM60.03 87.2259C59.6652 86.5453 59.3327 85.8561 59.032 85.16C55.5027 76.9894 56.3498 67.8652 60.7143 60.6303C61.5465 59.2508 62.5066 57.94 63.5886 56.7176C64.7773 55.4771 66.1752 54.1796 67.7272 52.9779C70.9361 50.4933 74.1822 48.9731 78.841 48.1025C91.0036 45.8295 101.731 51.2799 107.391 61.8398C108.833 64.5294 109.77 67.3546 110.236 70.2068C112.033 81.2241 106.793 92.645 96.4038 98.2136C85.8363 103.878 73.1753 101.754 65.0051 93.8299C63.0637 91.9471 61.3759 89.7369 60.03 87.2259ZM193.466 99.527L194.852 98.3757L173.231 71.7968L171.649 73.1011L193.466 99.527ZM153.054 88.4409L175.01 114.863L176.604 113.539L154.647 87.1169L153.054 88.4409ZM189.483 102.837L188.421 103.72L166.389 77.437L167.405 76.5994L189.483 102.837ZM149.801 91.1441L171.757 117.567L170.695 118.449L148.739 92.0268L149.801 91.1441ZM187.226 104.713L184.371 107.085L162.392 80.7325L165.269 78.3608L187.226 104.713ZM135.328 103.17L157.285 129.593L154.43 131.965L132.474 105.543L135.328 103.17ZM138.648 100.412L160.604 126.835L159.542 127.717L137.585 101.295L138.648 100.412ZM140.44 98.9226L162.396 125.345L163.99 124.021L142.033 97.5986L140.44 98.9226ZM128.955 108.466L150.911 134.889L148.057 137.261L126.1 110.839L128.955 108.466ZM130.947 106.811L152.903 133.234L151.841 134.117L129.884 107.694L130.947 106.811ZM121.623 114.559L143.579 140.982L142.517 141.865L120.56 115.442L121.623 114.559ZM191.474 101.182L190.412 102.065L168.328 75.8389L169.541 74.8388L191.474 101.182Z" stroke="#373737" stroke-opacity="0.15"/>
</g>
</svg>
