<svg width="182" height="132" viewBox="0 0 182 132" fill="none" xmlns="http://www.w3.org/2000/svg">
    <g opacity="0.3">
        <path fill-rule="evenodd" clip-rule="evenodd" d="M39.0845 38.8216V55.5644H55.4413H71.798H88.1548H104.512H120.868H137.225H153.582H169.939V38.8216H104.512H39.0845ZM41.1665 40.9145V51.9379V53.4716H71.2776V40.9145H69.7519H41.1665ZM167.857 53.4716V40.9145H137.746V53.4716H167.857ZM105.553 53.4716V40.9145H135.664V53.4716H105.553ZM103.471 53.4716V40.9145H73.3595V53.4716H103.471Z" fill="#A4A4A4"/>
        <path d="M50.1459 77.4007L39.0845 55.5644V65.2802V74.9959L50.1459 86.1152V77.4007Z" fill="#4A70D0"/>
        <path d="M71.2776 53.4716V40.9145H69.7519V51.9379L71.2776 53.4716Z" fill="#D9D9D9"/>
        <path d="M41.1665 53.4716H71.2776L69.7519 51.9379H41.1665V53.4716Z" fill="#D9D9D9"/>
        <path d="M69.7519 40.9145H41.1665V51.9379H69.7519V40.9145Z" fill="#656565"/>
        <path fill-rule="evenodd" clip-rule="evenodd" d="M103.471 53.4716V40.9145H101.945V51.9379H73.3595V53.4716H103.471Z" fill="#D9D9D9"/>
        <path fill-rule="evenodd" clip-rule="evenodd" d="M105.553 51.9379L105.553 53.4716H135.664V40.9145H134.138V51.9379H105.553Z" fill="#D9D9D9"/>
        <path fill-rule="evenodd" clip-rule="evenodd" d="M167.857 53.4716V40.9145H166.331V51.9379H137.746V53.4716H167.857Z" fill="#D9D9D9"/>
        <path d="M137.746 40.9145V51.9379H166.331V40.9145H137.746Z" fill="#656565"/>
        <path d="M105.553 40.9145L105.553 51.9379H134.138V40.9145H105.553Z" fill="#656565"/>
        <path d="M73.3595 40.9145V51.9379H101.945V40.9145H73.3595Z" fill="#656565"/>
        <path d="M39.0845 38.8216L1 0.537691L1 17.2805L5.76056 22.066L34.3239 50.7789L39.0845 55.5644V38.8216Z" fill="#D9D9D9"/>
        <path fill-rule="evenodd" clip-rule="evenodd" d="M13.2501 4.44006L1 0.537691H131.854L127.371 4.44006H13.2501Z" fill="#D9D9D9"/>
        <path fill-rule="evenodd" clip-rule="evenodd" d="M1 0.537691L39.0845 38.8216L43.2685 34.6157L29.9057 21.1829L13.2501 4.44006L1 0.537691ZM169.939 38.8216L131.854 0.537691L127.371 4.44006L157.39 34.6157H157.387L169.939 38.8216Z" fill="#D9D9D9"/>
        <path d="M104.512 38.8216H169.939L157.387 34.6157H140.734H131.854H43.2685L39.0845 38.8216H104.512Z" fill="#D9D9D9"/>
        <path d="M157.387 34.6157H157.39L127.371 4.44006V21.1829L140.734 34.6157H157.387Z" fill="#D9D9D9"/>
        <path fill-rule="evenodd" clip-rule="evenodd" d="M13.2501 4.44006L29.9057 21.1829H127.371V4.44006H13.2501Z" fill="#A4A4A4"/>
        <path d="M43.2685 34.6157H131.854H140.734L127.371 21.1829H29.9057L43.2685 34.6157Z" fill="#D9D9D9"/>
        <path d="M34.3239 50.7789L5.76056 22.066V31.7818L7.7196 33.751L9.5417 35.5827L34.3239 60.4947V50.7789Z" fill="#D9D9D9"/>
        <path d="M50.1459 86.1152L39.0845 74.9959V116.578H55.4413V114.848V89.4654C50.1459 88.7537 50.1459 86.1152 50.1459 86.1152Z" fill="#A4A4A4"/>
        <path d="M39.0845 116.578V130.534H55.4413V128.804V116.578H39.0845Z" fill="#4A70D0"/>
        <path d="M169.939 130.534V116.578H153.582V130.534H169.939Z" fill="#4A70D0"/>
        <path d="M164.643 86.1152C164.643 86.1152 164.643 89.6405 156.679 89.6405C155.485 89.6405 154.461 89.5613 153.582 89.4267V116.578H169.939V89.4654C164.643 88.7536 164.643 86.1152 164.643 86.1152Z" fill="#A4A4A4"/>
        <path d="M5.76056 83.0798V97.0358H7.7196V83.0798H5.76056Z" fill="#4A70D0"/>
        <path d="M1 78.2943L1 92.2503L5.76056 97.0358V83.0798L1 78.2943Z" fill="#6590FF"/>
        <path d="M34.3239 123.779V111.793V109.823L7.7196 83.0798V97.0358L34.3239 123.779Z" fill="#6590FF"/>
        <path d="M39.0845 130.534V116.578L34.3239 111.793V123.779V125.749L39.0845 130.534Z" fill="#6590FF"/>
        <path d="M1 17.2805L1 78.2943L5.76056 83.0798V31.7818V22.066L1 17.2805Z" fill="#D9D9D9"/>
        <path d="M39.0845 116.578V74.9959V65.2802V55.5644L34.3239 50.7789V60.4947V74.2389V76.0705V78.6815V107.992V109.823V111.793L39.0845 116.578Z" fill="#D9D9D9"/>
        <path d="M153.582 130.534V116.578L151.86 114.848V128.804L153.582 130.534Z" fill="#6590FF"/>
        <path d="M7.7196 83.0798L34.3239 109.823V107.992L9.5417 83.0798H7.7196Z" fill="#D9D9D9"/>
        <path d="M153.582 116.578V89.4267C152.932 89.3271 152.361 89.1972 151.86 89.0466C151.397 88.9072 150.994 88.7502 150.642 88.583V113.623L151.86 114.848L153.582 116.578Z" fill="#D9D9D9"/>
        <path fill-rule="evenodd" clip-rule="evenodd" d="M105.677 114.848H151.86L150.642 113.623H105.677V114.848Z" fill="#D9D9D9"/>
        <path fill-rule="evenodd" clip-rule="evenodd" d="M105.677 113.623H150.642V88.583C150.485 88.5082 150.338 88.4314 150.201 88.3532C148.436 87.3461 148.286 86.1152 148.286 86.1152C148.286 86.1152 148.286 89.6405 140.108 89.6405C131.93 89.6405 131.93 86.1152 131.93 86.1152C131.93 86.1152 131.93 89.6405 123.751 89.6405C115.573 89.6405 115.573 86.1152 115.573 86.1152C115.573 86.1152 115.573 89.6405 107.395 89.6405C106.776 89.6405 106.205 89.6204 105.677 89.5831V113.623Z" fill="#656565"/>
        <path fill-rule="evenodd" clip-rule="evenodd" d="M105.677 128.804H151.86V114.848H105.677V116.578V128.804Z" fill="#4A70D0"/>
        <path d="M88.506 128.804L90.2276 130.534V116.578L88.506 114.848V128.804Z" fill="#6590FF"/>
        <path d="M90.2276 130.534H105.677V128.804V116.578H90.2276V130.534Z" fill="#4A70D0"/>
        <path d="M90.2276 89.6284C89.6021 89.6093 89.0298 89.5682 88.506 89.5088V114.848L90.2276 116.578V89.6284Z" fill="#D9D9D9"/>
        <path d="M99.2162 86.1152C99.2162 86.1152 99.2162 89.6405 91.0378 89.6405C90.7583 89.6405 90.4883 89.6364 90.2276 89.6284V116.578H105.677V114.848V113.623V89.5831C99.2162 89.1277 99.2162 86.1152 99.2162 86.1152Z" fill="#A4A4A4"/>
        <path fill-rule="evenodd" clip-rule="evenodd" d="M88.506 128.804H85.6022V114.848H88.506V128.804Z" fill="#4A70D0"/>
        <path d="M55.4413 116.578V128.804H57.8409V114.848H55.4413V116.578Z" fill="#4A70D0"/>
        <path d="M55.4413 89.4654V114.848H57.8409V91.5955V89.6363C56.9396 89.6203 56.1438 89.5598 55.4413 89.4654Z" fill="#A4A4A4"/>
        <path d="M88.506 114.848V89.5088C87.2981 89.372 86.3486 89.1384 85.6022 88.8557V91.5955V114.848H88.506Z" fill="#A4A4A4"/>
        <path fill-rule="evenodd" clip-rule="evenodd" d="M74.681 89.6405C66.5026 89.6405 66.5026 86.1152 66.5026 86.1152C66.5026 86.1152 66.5026 89.1792 59.8758 89.5942V91.5955H83.6586V87.6699C82.8594 86.8631 82.8594 86.1152 82.8594 86.1152C82.8594 86.1152 82.8594 89.6405 74.681 89.6405Z" fill="#656565"/>
        <path d="M58.3242 89.6405C58.1599 89.6405 57.9988 89.6391 57.8409 89.6363V91.5955H59.8758V89.5942C59.3944 89.6243 58.8781 89.6405 58.3242 89.6405Z" fill="#D9D9D9"/>
        <path d="M85.6022 88.8557C84.6778 88.5056 84.0649 88.0801 83.6586 87.6699V91.5955H85.6022V88.8557Z" fill="#D9D9D9"/>
        <path d="M57.8409 114.848V128.804H59.8758V93.6865H83.6586V128.804H85.6022V114.848V91.5955H83.6586H59.8758H57.8409V114.848Z" fill="#D9D9D9"/>
        <path fill-rule="evenodd" clip-rule="evenodd" d="M83.6586 128.804H59.8758L61.38 127.292H82.1544L83.6586 128.804Z" fill="#D9D9D9"/>
        <path fill-rule="evenodd" clip-rule="evenodd" d="M61.38 127.292L59.8758 128.804V93.6865H83.6586V128.804L82.1544 127.292V114.848V95.1986H61.38V127.292Z" fill="#D9D9D9"/>
        <path fill-rule="evenodd" clip-rule="evenodd" d="M61.38 127.292V95.1986H82.1544V114.848V127.292H61.38ZM77.289 114.03H80.3375V112.57H77.289V114.03Z" fill="#656565"/>
        <path d="M80.3375 114.03H77.289V112.57H80.3375V114.03Z" fill="#D9D9D9"/>
        <path d="M9.5417 83.0798L34.3239 107.992V78.6815L9.5417 53.7696V83.0798Z" fill="#7C7C7C"/>
        <path d="M5.76056 31.7818V83.0798H7.7196V51.9379L9.5417 53.7696L34.3239 78.6815V76.0705L7.7196 49.3269V33.751L5.76056 31.7818Z" fill="#D9D9D9"/>
        <path d="M7.7196 83.0798H9.5417V53.7696L7.7196 51.9379V83.0798Z" fill="#A4A4A4"/>
        <path fill-rule="evenodd" clip-rule="evenodd" d="M9.5417 35.5827L34.3239 60.4947V74.2389L9.5417 49.3269V35.5827Z" fill="#7C7C7C"/>
        <path d="M9.5417 35.5827L7.7196 33.751V49.3269H9.5417V35.5827Z" fill="#A4A4A4"/>
        <path d="M7.7196 49.3269L34.3239 76.0705V74.2389L9.5417 49.3269H7.7196Z" fill="#D9D9D9"/>
        <path d="M39.0845 55.5644L50.1459 77.4007H66.5026L55.4413 55.5644H39.0845Z" fill="#6590FF"/>
        <path d="M71.798 55.5644L82.8594 77.4007H99.2162L88.1548 55.5644H71.798Z" fill="#6590FF"/>
        <path d="M82.8594 77.4007L71.798 55.5644H55.4413L66.5026 77.4007H82.8594Z" fill="#D9D9D9"/>
        <path d="M181 86.1152V77.4007H164.643V86.1152C164.643 86.1152 164.643 88.7536 169.939 89.4654C170.764 89.5764 171.719 89.6405 172.822 89.6405C181 89.6405 181 86.1152 181 86.1152Z" fill="#A4A4A4"/>
        <path d="M115.573 77.4007V86.1152C115.573 86.1152 115.573 89.6405 123.751 89.6405C131.93 89.6405 131.93 86.1152 131.93 86.1152V77.4007H115.573Z" fill="#4A70D0"/>
        <path d="M82.8594 77.4007V86.1152C82.8594 86.1152 82.8594 86.8631 83.6586 87.6699C84.0649 88.0801 84.6778 88.5056 85.6022 88.8557C86.3486 89.1384 87.2981 89.372 88.506 89.5088C89.0298 89.5682 89.6021 89.6093 90.2276 89.6284C90.4883 89.6364 90.7583 89.6405 91.0378 89.6405C99.2162 89.6405 99.2162 86.1152 99.2162 86.1152V77.4007H82.8594Z" fill="#4A70D0"/>
        <path d="M82.8594 86.1152V77.4007H66.5026V86.1152C66.5026 86.1152 66.5026 89.6405 74.681 89.6405C82.8594 89.6405 82.8594 86.1152 82.8594 86.1152Z" fill="#A4A4A4"/>
        <path d="M50.1459 77.4007V86.1152C50.1459 86.1152 50.1459 88.7537 55.4413 89.4654C56.1438 89.5598 56.9396 89.6203 57.8409 89.6363C57.9988 89.6391 58.1599 89.6405 58.3242 89.6405C58.8781 89.6405 59.3944 89.6243 59.8758 89.5942C66.5026 89.1792 66.5026 86.1152 66.5026 86.1152V77.4007H50.1459Z" fill="#4A70D0"/>
        <path d="M104.512 55.5644L115.573 77.4007H131.93L120.868 55.5644H104.512Z" fill="#6590FF"/>
        <path d="M115.573 77.4007L104.512 55.5644H88.1548L99.2162 77.4007H115.573Z" fill="#D9D9D9"/>
        <path d="M115.573 86.1152V77.4007H99.2162V86.1152C99.2162 86.1152 99.2162 89.1277 105.677 89.5831C106.205 89.6204 106.776 89.6405 107.395 89.6405C115.573 89.6405 115.573 86.1152 115.573 86.1152Z" fill="#A4A4A4"/>
        <path d="M148.286 77.4007L137.225 55.5644H120.868L131.93 77.4007H148.286Z" fill="#D9D9D9"/>
        <path d="M148.286 86.1152V77.4007H131.93V86.1152C131.93 86.1152 131.93 89.6405 140.108 89.6405C148.286 89.6405 148.286 86.1152 148.286 86.1152Z" fill="#A4A4A4"/>
        <path fill-rule="evenodd" clip-rule="evenodd" d="M153.582 55.5644H169.939L181 77.4007H164.643L153.582 55.5644Z" fill="#D9D9D9"/>
        <path d="M137.225 55.5644L148.286 77.4007H164.643L153.582 55.5644H137.225Z" fill="#6590FF"/>
        <path d="M148.286 77.4007V86.1152C148.286 86.1152 148.436 87.3461 150.201 88.3532C150.338 88.4314 150.485 88.5082 150.642 88.583C150.994 88.7502 151.397 88.9072 151.86 89.0466C152.361 89.1972 152.932 89.3271 153.582 89.4267C154.461 89.5613 155.485 89.6405 156.679 89.6405C164.643 89.6405 164.643 86.1152 164.643 86.1152V77.4007H148.286Z" fill="#4A70D0"/>
        <path d="M39.0845 130.534V116.578M39.0845 130.534H55.4413V128.804M39.0845 130.534L34.3239 125.749V123.779M169.939 38.8216V55.5644M169.939 38.8216H104.512H39.0845M169.939 38.8216L131.854 0.537691M169.939 38.8216L157.39 34.6157M169.939 38.8216L157.387 34.6157M39.0845 38.8216L1 0.537691M39.0845 38.8216V55.5644M39.0845 38.8216L43.2685 34.6157M1 0.537691L1 17.2805M1 0.537691H131.854M1 0.537691L13.2501 4.44006M131.854 0.537691V0.53418M131.854 0.537691L127.371 4.44006M39.0845 55.5644L50.1459 77.4007M39.0845 55.5644H55.4413M39.0845 55.5644L34.3239 50.7789M39.0845 55.5644V65.2802V74.9959M169.939 55.5644L181 77.4007M169.939 55.5644H153.582M50.1459 77.4007V86.1152M50.1459 77.4007H66.5026M181 77.4007V86.1152C181 86.1152 181 89.6405 172.822 89.6405C171.719 89.6405 170.764 89.5764 169.939 89.4654M181 77.4007H164.643M50.1459 86.1152L39.0845 74.9959M50.1459 86.1152C50.1459 86.1152 50.1459 88.7537 55.4413 89.4654M164.643 86.1152V77.4007M164.643 86.1152C164.643 86.1152 164.643 89.6405 156.679 89.6405C155.485 89.6405 154.461 89.5613 153.582 89.4267M164.643 86.1152C164.643 86.1152 164.643 88.7536 169.939 89.4654M39.0845 74.9959V116.578M167.857 53.4716V40.9145M167.857 53.4716H137.746M167.857 53.4716L166.331 51.9379M167.857 40.9145H137.746M167.857 40.9145H166.331M105.553 53.4716V40.9145M105.553 53.4716H135.664M105.553 53.4716L105.553 51.9379M103.471 53.4716V40.9145M103.471 53.4716H73.3595M103.471 53.4716L101.945 51.9379M103.471 40.9145H73.3595M103.471 40.9145H101.945M105.553 40.9145H135.664M105.553 40.9145L105.553 51.9379M105.553 40.9145H134.138M104.512 55.5644L115.573 77.4007M104.512 55.5644H88.1548M104.512 55.5644H120.868M73.3595 53.4716V40.9145M73.3595 53.4716V51.9379M71.2776 53.4716V40.9145H69.7519M71.2776 53.4716H41.1665V51.9379M71.2776 53.4716L69.7519 51.9379M73.3595 40.9145V51.9379M73.3595 40.9145H101.945M137.746 53.4716V40.9145M137.746 53.4716V51.9379M135.664 53.4716V40.9145M135.664 53.4716L134.138 51.9379M135.664 40.9145H134.138M137.746 40.9145V51.9379M137.746 40.9145H166.331M115.573 77.4007V86.1152M115.573 77.4007H99.2162M115.573 77.4007H131.93M115.573 86.1152C115.573 86.1152 115.573 89.6405 107.395 89.6405C106.776 89.6405 106.205 89.6204 105.677 89.5831M115.573 86.1152C115.573 86.1152 115.573 89.6405 123.751 89.6405C131.93 89.6405 131.93 86.1152 131.93 86.1152M82.8594 77.4007V86.1152M82.8594 77.4007L71.798 55.5644M82.8594 77.4007H66.5026M82.8594 77.4007H99.2162M82.8594 86.1152C82.8594 86.1152 82.8594 89.6405 74.681 89.6405C66.5026 89.6405 66.5026 86.1152 66.5026 86.1152M82.8594 86.1152C82.8594 86.1152 82.8594 86.8631 83.6586 87.6699M148.286 77.4007V86.1152M148.286 77.4007L137.225 55.5644M148.286 77.4007H131.93M148.286 77.4007H164.643M148.286 86.1152C148.286 86.1152 148.286 89.6405 140.108 89.6405C131.93 89.6405 131.93 86.1152 131.93 86.1152M148.286 86.1152C148.286 86.1152 148.436 87.3461 150.201 88.3532C150.338 88.4314 150.485 88.5082 150.642 88.583M71.798 55.5644H55.4413M71.798 55.5644H88.1548M137.225 55.5644H120.868M137.225 55.5644H153.582M55.4413 55.5644L66.5026 77.4007M66.5026 77.4007V86.1152M66.5026 86.1152C66.5026 86.1152 66.5026 89.1792 59.8758 89.5942M88.1548 55.5644L99.2162 77.4007M99.2162 77.4007V86.1152M99.2162 86.1152C99.2162 86.1152 99.2162 89.6405 91.0378 89.6405C90.7583 89.6405 90.4883 89.6364 90.2276 89.6284M99.2162 86.1152C99.2162 86.1152 99.2162 89.1277 105.677 89.5831M120.868 55.5644L131.93 77.4007M131.93 77.4007V86.1152M153.582 55.5644L164.643 77.4007M169.939 89.4654V116.578M69.7519 51.9379V40.9145M69.7519 51.9379H41.1665M69.7519 40.9145H41.1665V51.9379M101.945 51.9379V40.9145M101.945 51.9379H73.3595M134.138 51.9379V40.9145M134.138 51.9379H105.553M166.331 51.9379V40.9145M166.331 51.9379H137.746M1 17.2805L1 78.2943M1 17.2805L5.76056 22.066M43.2685 34.6157H131.854H140.734M43.2685 34.6157L29.9057 21.1829M157.387 34.6157H157.39M157.387 34.6157H140.734M157.39 34.6157L127.371 4.44006M157.39 34.6157H140.734M13.2501 4.44006H127.371M13.2501 4.44006L29.9057 21.1829M127.371 4.44006V21.1829M127.371 21.1829L140.734 34.6157M127.371 21.1829H29.9057M39.0845 116.578L34.3239 111.793M39.0845 116.578H55.4413M169.939 116.578V130.534H153.582M169.939 116.578H153.582M1 78.2943L1 92.2503L5.76056 97.0358M1 78.2943L5.76056 83.0798M5.76056 22.066L34.3239 50.7789M5.76056 22.066V31.7818M34.3239 111.793V123.779M34.3239 111.793V109.823M5.76056 83.0798V31.7818M5.76056 83.0798V97.0358M5.76056 83.0798H7.7196M34.3239 50.7789V60.4947M5.76056 31.7818L7.7196 33.751M34.3239 60.4947L9.5417 35.5827M34.3239 60.4947V74.2389M55.4413 116.578V128.804M55.4413 116.578V114.848M55.4413 89.4654V114.848M55.4413 89.4654C56.1438 89.5598 56.9396 89.6203 57.8409 89.6363M153.582 130.534V116.578M153.582 130.534L151.86 128.804M153.582 116.578V89.4267M153.582 116.578L151.86 114.848M153.582 89.4267C152.932 89.3271 152.361 89.1972 151.86 89.0466C151.397 88.9072 150.994 88.7502 150.642 88.583M5.76056 97.0358H7.7196M7.7196 97.0358L34.3239 123.779M7.7196 97.0358V83.0798M7.7196 83.0798L34.3239 109.823M7.7196 83.0798H9.5417M7.7196 83.0798V51.9379M34.3239 109.823V107.992M7.7196 33.751L9.5417 35.5827M7.7196 33.751V49.3269M9.5417 83.0798L34.3239 107.992M9.5417 83.0798V53.7696M34.3239 107.992V78.6815M9.5417 35.5827V49.3269M151.86 128.804V114.848M151.86 128.804H105.677M55.4413 128.804H57.8409M151.86 114.848L150.642 113.623M151.86 114.848H105.677M55.4413 114.848H57.8409M150.642 113.623V88.583M150.642 113.623H105.677M88.506 128.804L90.2276 130.534M88.506 128.804V114.848M88.506 128.804H85.6022M88.506 89.5088C89.0298 89.5682 89.6021 89.6093 90.2276 89.6284M88.506 89.5088V114.848M88.506 89.5088C87.2981 89.372 86.3486 89.1384 85.6022 88.8557M90.2276 130.534H105.677V128.804M90.2276 130.534V116.578M105.677 89.5831V113.623M90.2276 89.6284V116.578M88.506 114.848L90.2276 116.578M88.506 114.848H85.6022M105.677 114.848V113.623M105.677 114.848V116.578M90.2276 116.578H105.677M105.677 128.804V116.578M85.6022 128.804V114.848M85.6022 128.804H83.6586M85.6022 88.8557C84.6778 88.5056 84.0649 88.0801 83.6586 87.6699M85.6022 88.8557V91.5955M57.8409 128.804V114.848M57.8409 128.804H59.8758M57.8409 89.6363C57.9988 89.6391 58.1599 89.6405 58.3242 89.6405C58.8781 89.6405 59.3944 89.6243 59.8758 89.5942M57.8409 89.6363V91.5955M57.8409 114.848V91.5955M85.6022 114.848V91.5955M59.8758 128.804H83.6586M59.8758 128.804V93.6865M59.8758 128.804L61.38 127.292M59.8758 89.5942V91.5955M83.6586 128.804V93.6865M83.6586 128.804L82.1544 127.292M83.6586 87.6699V91.5955M57.8409 91.5955H59.8758M85.6022 91.5955H83.6586M59.8758 93.6865H83.6586M59.8758 93.6865L61.38 95.1986M83.6586 93.6865L82.1544 95.1986M59.8758 91.5955H83.6586M61.38 95.1986V127.292M61.38 95.1986H82.1544M61.38 127.292H82.1544M82.1544 95.1986V114.848V127.292M7.7196 51.9379L9.5417 53.7696M7.7196 51.9379V49.3269M34.3239 78.6815V76.0705M34.3239 78.6815L9.5417 53.7696M7.7196 49.3269L34.3239 76.0705M7.7196 49.3269H9.5417M34.3239 76.0705V74.2389M9.5417 49.3269L34.3239 74.2389M80.3375 114.03H77.289V112.57H80.3375V114.03Z" stroke="#373737" stroke-opacity="0.15"/>
    </g>
</svg>
