<svg width="25" height="25" viewBox="0 0 25 25" fill="none" xmlns="http://www.w3.org/2000/svg">
    <path fill-rule="evenodd" clip-rule="evenodd" d="M12.4998 1.98755C16.2937 1.98747 19.3693 5.06313 19.3693 8.85705C19.3693 12.651 12.4998 23.0123 12.4998 23.0123C12.4998 23.0123 5.63062 12.6509 5.63062 8.85705C5.63062 5.06321 8.70598 1.98763 12.4998 1.98755ZM9.91455 8.85705C9.91455 7.42925 11.072 6.27178 12.4998 6.27178C13.9276 6.27178 15.0851 7.42925 15.0851 8.85705C15.0851 10.2849 13.9276 11.4423 12.4998 11.4423C11.072 11.4423 9.91455 10.2849 9.91455 8.85705Z" stroke="#4E4E4E" stroke-width="2"/>
    <path d="M12.4998 6.27178C11.072 6.27178 9.91455 7.42925 9.91455 8.85705C9.91455 10.2849 11.072 11.4423 12.4998 11.4423C13.9276 11.4423 15.0851 10.2849 15.0851 8.85705C15.0851 7.42925 13.9276 6.27178 12.4998 6.27178Z" stroke="#4E4E4E" stroke-width="2"/>
</svg>
