<svg width="15" height="16" viewBox="0 0 15 16" fill="none" xmlns="http://www.w3.org/2000/svg">
    <path d="M7.49993 3.52549C6.4641 3.52549 5.6244 4.36519 5.6244 5.40102C5.6244 6.43684 6.4641 7.27654 7.49993 7.27654C8.53575 7.27654 9.37545 6.43684 9.37545 5.40102C9.37545 4.36519 8.53575 3.52549 7.49993 3.52549ZM6.6244 5.40102C6.6244 4.91748 7.01639 4.52549 7.49993 4.52549C7.98346 4.52549 8.37545 4.91748 8.37545 5.40102C8.37545 5.88455 7.98346 6.27654 7.49993 6.27654C7.01639 6.27654 6.6244 5.88455 6.6244 5.40102ZM7.49994 1C9.93053 0.999948 11.9009 2.97039 11.9009 5.40102C11.9009 5.96606 11.6341 6.85239 11.1755 7.92418C10.7259 8.97478 10.1227 10.1353 9.51425 11.2211C8.90667 12.3053 8.29841 13.3068 7.84168 14.0377C7.7149 14.2406 7.5999 14.4225 7.49994 14.5793C7.39998 14.4225 7.28498 14.2406 7.15821 14.0377C6.7015 13.3068 6.09327 12.3053 5.48571 11.2211C4.87725 10.1353 4.27414 8.97476 3.82455 7.92416C3.3659 6.85238 3.09912 5.96605 3.09912 5.40102C3.09912 2.97044 5.06939 1.00005 7.49994 1Z" stroke="#4E4E4E"/>
</svg>
