<svg width="25" height="25" viewBox="0 0 25 25" fill="none" xmlns="http://www.w3.org/2000/svg">
    <path d="M4.57593 9.7014V7.50633C4.57593 6.10378 5.77189 4.9668 7.24719 4.9668H17.7528C19.2281 4.9668 20.4241 6.10378 20.4241 7.50633V9.7014M4.57593 9.7014V11.6495V13.5976V15.5457V17.4939C4.57593 18.3268 4.99771 19.066 5.6493 19.5291C6.09492 19.8458 6.64802 20.0334 7.24719 20.0334H17.7528C18.352 20.0334 18.9051 19.8458 19.3507 19.5291C20.0023 19.066 20.4241 18.3268 20.4241 17.4939V15.5457V13.5976V11.6495V9.7014M4.57593 9.7014H6.55695H8.53797H10.519H11.5095H12.5H13.4905H14.481H16.4621H18.4431H20.4241M7.89258 12.2449H8.53797M7.89258 14.6192H8.53797M12.1718 12.2449H12.8172M12.1718 14.6192H12.8172M7.89258 16.9934H8.53797M12.1718 16.9934H12.8172M16.4621 12.2449H17.1074M16.4621 14.6192H17.1074M16.4621 16.9934H17.1074" stroke="#4E4E4E" stroke-width="2" stroke-linecap="round"/>
</svg>
