<svg width="15" height="16" viewBox="0 0 15 16" fill="none" xmlns="http://www.w3.org/2000/svg">
    <path d="M1 5.77094V4.02264C1 2.90557 1.98103 2 3.1912 2H11.8088C13.019 2 14 2.90557 14 4.02264V5.77094M1 5.77094V7.32254V8.87415V10.4258V11.9774C1 12.6407 1.34598 13.2295 1.88047 13.5984C2.246 13.8506 2.6997 14 3.1912 14H11.8088C12.3003 14 12.754 13.8506 13.1195 13.5984C13.654 13.2295 14 12.6407 14 11.9774V10.4258V8.87415V7.32254V5.77094M1 5.77094H2.625H4.25H5.875H6.6875H7.5H8.3125H9.125H10.75H12.375H14M3.7206 7.79675H4.25M3.7206 9.68777H4.25M7.2308 7.79675H7.7602M7.2308 9.68777H7.7602M3.7206 11.5788H4.25M7.2308 11.5788H7.7602M10.75 7.79675H11.2794M10.75 9.68777H11.2794M10.75 11.5788H11.2794" stroke="#4E4E4E" stroke-linecap="round"/>
</svg>
